<svg width="40" height="40" viewBox="0 0 40 40" fill="none" xmlns="http://www.w3.org/2000/svg">
<g clip-path="url(#clip0_166_8)">
<path fill-rule="evenodd" clip-rule="evenodd" d="M0 11.6667C0 5.22334 5.22334 0 11.6667 0V11.6667H0ZM0 14.1667H11.6667V25.8333H0V14.1667ZM11.6667 28.3333H0C0 34.7767 5.22334 40 11.6667 40V28.3333ZM14.1667 0H25.8333V11.6667H14.1667V0ZM25.8333 14.1667H14.1667C14.1667 20.61 19.39 25.8333 25.8333 25.8333V14.1667ZM14.1667 28.3333H25.8333V40H14.1667V28.3333ZM40 11.6667C40 5.22334 34.7767 0 28.3333 0V11.6667H40ZM28.3333 14.1667C34.7767 14.1667 40 19.39 40 25.8333H28.3333V14.1667ZM40 28.3333H28.3333V40H40V28.3333Z" fill="url(#paint0_linear_166_8)"/>
</g>
<defs>
<linearGradient id="paint0_linear_166_8" x1="20" y1="0" x2="20" y2="40" gradientUnits="userSpaceOnUse">
<stop stop-color="#5C33FF"/>
<stop offset="1" stop-color="#FFA361"/>
</linearGradient>
<clipPath id="clip0_166_8">
<rect width="40" height="40" fill="white"/>
</clipPath>
</defs>
</svg>
