<svg width="80" height="80" viewBox="0 0 80 80" fill="none" xmlns="http://www.w3.org/2000/svg">
<g id="Frame" clip-path="url(#clip0_104_2)">
<path id="Vector" d="M13.3334 43.3335C19.277 44.0399 24.8102 46.7253 29.0426 50.9576C33.2749 55.19 35.9603 60.7232 36.6667 66.6668C39.6131 64.9682 42.0777 62.5463 43.8275 59.6299C45.5772 56.7136 46.5545 53.3993 46.6667 50.0002C52.2637 48.0312 57.1512 44.4468 60.7112 39.7002C64.2712 34.9536 66.3437 29.258 66.6667 23.3335C66.6667 20.6813 65.6131 18.1378 63.7378 16.2624C61.8624 14.3871 59.3189 13.3335 56.6667 13.3335C50.7422 13.6565 45.0466 15.729 40.3 19.289C35.5534 22.849 31.969 27.7365 30 33.3335C26.6009 33.4457 23.2866 34.423 20.3703 36.1727C17.4539 37.9225 15.032 40.3871 13.3334 43.3335Z" stroke="#02000B" stroke-width="4" stroke-linecap="round" stroke-linejoin="round"/>
<path id="Vector_2" d="M23.3334 46.6665C19.8642 48.6251 17.0589 51.5751 15.2772 55.1384C13.4956 58.7018 12.8187 62.716 13.3334 66.6665C17.2839 67.1812 21.2981 66.5043 24.8615 64.7226C28.4248 62.941 31.3748 60.1357 33.3334 56.6665" stroke="#02000B" stroke-width="4" stroke-linecap="round" stroke-linejoin="round"/>
<path id="Vector_3" d="M46.6666 29.9998C46.6666 30.8839 47.0178 31.7317 47.6429 32.3569C48.2681 32.982 49.1159 33.3332 50 33.3332C50.884 33.3332 51.7319 32.982 52.357 32.3569C52.9821 31.7317 53.3333 30.8839 53.3333 29.9998C53.3333 29.1158 52.9821 28.2679 52.357 27.6428C51.7319 27.0177 50.884 26.6665 50 26.6665C49.1159 26.6665 48.2681 27.0177 47.6429 27.6428C47.0178 28.2679 46.6666 29.1158 46.6666 29.9998Z" stroke="#02000B" stroke-width="4" stroke-linecap="round" stroke-linejoin="round"/>
</g>
<defs>
<clipPath id="clip0_104_2">
<rect width="80" height="80" fill="white"/>
</clipPath>
</defs>
</svg>
