<svg width="130" height="30" viewBox="0 0 130 30" fill="none" xmlns="http://www.w3.org/2000/svg">
<path d="M31.32 7.25H34.32V21.7H31.32V7.25Z" fill="#6F6F6F"/>
<path d="M36 16.7499C36 15.7103 36.3087 14.6941 36.8869 13.8301C37.4651 12.9661 38.2868 12.2932 39.2479 11.8967C40.209 11.5003 41.2661 11.3981 42.2853 11.6031C43.3045 11.8081 44.2399 12.3111 44.9729 13.0483C45.7059 13.7856 46.2036 14.7238 46.4028 15.7442C46.6019 16.7646 46.4937 17.8211 46.0917 18.7799C45.6897 19.7387 45.0122 20.5565 44.1449 21.1298C43.2776 21.703 42.2596 22.0059 41.22 21.9999C40.5305 22.0053 39.8468 21.873 39.2091 21.6107C38.5714 21.3484 37.9924 20.9614 37.5062 20.4724C37.02 19.9834 36.6364 19.4023 36.3777 18.763C36.1191 18.1238 35.9907 17.4394 36 16.7499ZM43.52 16.7499C43.5082 16.3017 43.3645 15.867 43.1069 15.5C42.8493 15.133 42.4893 14.8501 42.0717 14.6867C41.6542 14.5233 41.1978 14.4867 40.7596 14.5813C40.3213 14.6759 39.9207 14.8977 39.6078 15.2188C39.2949 15.5399 39.0836 15.9462 39.0004 16.3867C38.9172 16.8273 38.9657 17.2826 39.1399 17.6957C39.3141 18.1089 39.6062 18.4615 39.9798 18.7094C40.3533 18.9574 40.7916 19.0898 41.24 19.0899C41.5453 19.0959 41.8485 19.0388 42.1307 18.9222C42.4129 18.8057 42.668 18.6322 42.8801 18.4126C43.0922 18.193 43.2567 17.932 43.3634 17.6459C43.4701 17.3598 43.5166 17.0548 43.5 16.7499H43.52Z" fill="#6F6F6F"/>
<path d="M58.31 11.8001V21.2101C58.31 24.5301 55.71 25.9401 53.08 25.9401C52.1523 26.0162 51.2218 25.8319 50.3933 25.4079C49.5647 24.9839 48.8709 24.337 48.39 23.5401L50.92 22.0801C51.125 22.4935 51.4511 22.8345 51.8549 23.0578C52.2587 23.2812 52.7209 23.3761 53.18 23.3301C53.4725 23.3661 53.7693 23.3371 54.0492 23.2451C54.3292 23.153 54.5853 23.0003 54.7993 22.7977C55.0134 22.5951 55.18 22.3478 55.2873 22.0733C55.3946 21.7989 55.4399 21.5041 55.42 21.2101V20.3001C55.0709 20.7234 54.6279 21.0595 54.1263 21.2816C53.6246 21.5038 53.0781 21.606 52.53 21.5801C51.2039 21.5801 49.9322 21.0533 48.9945 20.1156C48.0568 19.178 47.53 17.9062 47.53 16.5801C47.53 15.254 48.0568 13.9823 48.9945 13.0446C49.9322 12.1069 51.2039 11.5801 52.53 11.5801C53.0781 11.5542 53.6246 11.6564 54.1263 11.8786C54.6279 12.1008 55.0709 12.4368 55.42 12.8601V11.8601L58.31 11.8001ZM55.42 16.5501C55.4399 16.0717 55.3163 15.5982 55.065 15.1906C54.8137 14.783 54.4463 14.4599 54.0098 14.2628C53.5734 14.0657 53.0881 14.0037 52.6161 14.0847C52.1442 14.1657 51.7072 14.386 51.3615 14.7173C51.0158 15.0487 50.7771 15.4758 50.6761 15.9439C50.5751 16.412 50.6164 16.8996 50.7947 17.3439C50.9731 17.7883 51.2803 18.1692 51.6768 18.4376C52.0734 18.7061 52.5412 18.8497 53.02 18.8501C53.3325 18.8726 53.6462 18.8293 53.9408 18.7231C54.2355 18.6168 54.5047 18.4499 54.7308 18.2332C54.957 18.0164 55.1352 17.7546 55.2539 17.4647C55.3726 17.1748 55.4292 16.8632 55.42 16.5501Z" fill="#6F6F6F"/>
<path d="M60 16.75C60 15.7112 60.3082 14.6958 60.8855 13.8322C61.4628 12.9686 62.2833 12.2957 63.2432 11.8987C64.2031 11.5016 65.2592 11.3982 66.2779 11.6016C67.2966 11.805 68.232 12.306 68.9658 13.0412C69.6997 13.7765 70.1989 14.7129 70.4003 15.7319C70.6018 16.751 70.4964 17.8069 70.0975 18.766C69.6986 19.7252 69.0241 20.5444 68.1595 21.1201C67.2948 21.6957 66.2788 22.002 65.24 22C64.5492 22.0067 63.8639 21.8754 63.2245 21.6138C62.5851 21.3522 62.0043 20.9656 61.5163 20.4766C61.0282 19.9876 60.6427 19.4061 60.3823 18.7662C60.122 18.1263 59.992 17.4408 60 16.75ZM67.52 16.75C67.5082 16.3014 67.3642 15.8662 67.1062 15.499C66.8482 15.1319 66.4875 14.849 66.0694 14.6859C65.6513 14.5228 65.1944 14.4867 64.7559 14.5822C64.3174 14.6776 63.9168 14.9004 63.6043 15.2225C63.2918 15.5446 63.0813 15.9518 62.9993 16.393C62.9172 16.8342 62.9671 17.2898 63.1428 17.7027C63.3185 18.1157 63.6122 18.4676 63.9871 18.7144C64.3619 18.9611 64.8012 19.0918 65.25 19.09C65.5553 19.0959 65.8585 19.0389 66.1407 18.9223C66.4229 18.8058 66.678 18.6323 66.8901 18.4127C67.1022 18.193 67.2667 17.932 67.3734 17.646C67.4801 17.3599 67.5266 17.0549 67.51 16.75H67.52Z" fill="#6F6F6F"/>
<path d="M71.87 9.15012C71.87 8.79807 71.9744 8.45392 72.17 8.1612C72.3656 7.86848 72.6436 7.64034 72.9688 7.50561C73.2941 7.37089 73.652 7.33564 73.9973 7.40432C74.3425 7.473 74.6597 7.64253 74.9086 7.89147C75.1576 8.14041 75.3271 8.45757 75.3958 8.80286C75.4645 9.14814 75.4292 9.50604 75.2945 9.8313C75.1598 10.1565 74.9316 10.4345 74.6389 10.6301C74.3462 10.8257 74.002 10.9301 73.65 10.9301C73.1795 10.9249 72.7298 10.7357 72.3971 10.403C72.0644 10.0703 71.8752 9.62059 71.87 9.15012ZM72.16 11.8001H75.16V21.7001H72.16V11.8001Z" fill="#6F6F6F"/>
<path d="M88 16.7501C88.0336 17.4085 87.9367 18.0671 87.7148 18.6879C87.493 19.3087 87.1505 19.8795 86.7072 20.3674C86.2638 20.8553 85.7284 21.2508 85.1316 21.531C84.5349 21.8112 83.8886 21.9706 83.23 22.0001C82.6711 22.0373 82.1111 21.9478 81.5916 21.7383C81.0721 21.5287 80.6067 21.2046 80.23 20.7901V25.6801H77.23V11.8001H80.23V12.7301C80.6072 12.3168 81.073 11.9942 81.5925 11.7863C82.112 11.5785 82.6718 11.4909 83.23 11.5301C83.886 11.5596 84.5297 11.7181 85.1244 11.9964C85.7191 12.2747 86.2532 12.6675 86.6961 13.1522C87.1391 13.6369 87.4822 14.2041 87.7059 14.8215C87.9296 15.4388 88.0296 16.0941 88 16.7501ZM85 16.7501C84.9882 16.2856 84.8396 15.835 84.5727 15.4547C84.3059 15.0743 83.9327 14.7812 83.5 14.6121C83.0673 14.4429 82.5943 14.4053 82.1402 14.5038C81.6862 14.6023 81.2714 14.8327 80.9477 15.166C80.624 15.4993 80.4059 15.9207 80.3208 16.3775C80.2356 16.8342 80.2871 17.3059 80.4689 17.7335C80.6507 18.161 80.9546 18.5254 81.3426 18.781C81.7306 19.0366 82.1854 19.1719 82.65 19.1701C82.9682 19.1836 83.2857 19.1297 83.5816 19.0119C83.8776 18.8941 84.1453 18.7151 84.3672 18.4866C84.5891 18.2581 84.7601 17.9852 84.8692 17.686C84.9783 17.3867 85.0228 17.0678 85 16.7501Z" fill="#6F6F6F"/>
<path d="M97.13 18.7302C97.13 21.0102 95.13 21.9802 93.01 21.9802C92.1453 22.0581 91.2772 21.8748 90.5178 21.4541C89.7584 21.0334 89.1426 20.3946 88.75 19.6202L91.33 18.1602C91.4322 18.517 91.6538 18.828 91.9578 19.0409C92.2618 19.2539 92.6297 19.356 93 19.3302C93.71 19.3302 94.07 19.1102 94.07 18.7102C94.07 17.6202 89.2 18.2002 89.2 14.7702C89.2 12.6102 91.02 11.5302 93.08 11.5302C93.863 11.4952 94.641 11.6728 95.3311 12.0443C96.0213 12.4158 96.598 12.9673 97 13.6402L94.42 15.0002C94.306 14.7422 94.1198 14.5228 93.8838 14.3684C93.6477 14.214 93.372 14.1313 93.09 14.1302C92.57 14.1302 92.26 14.3302 92.26 14.6802C92.26 15.8202 97.13 15.0702 97.13 18.7302Z" fill="#6F6F6F"/>
<path d="M108 11.7998V21.6998H105V20.7698C104.659 21.1815 104.226 21.5073 103.737 21.7209C103.247 21.9346 102.714 22.0301 102.18 21.9998C100.18 21.9998 98.47 20.5698 98.47 17.8998V11.7998H101.47V17.4498C101.446 17.686 101.474 17.9245 101.552 18.1489C101.63 18.3732 101.755 18.578 101.919 18.7492C102.084 18.9203 102.284 19.0537 102.505 19.1402C102.726 19.2266 102.963 19.264 103.2 19.2498C104.28 19.2498 105.04 18.6098 105.04 17.2498V11.7998H108Z" fill="#6F6F6F"/>
<path d="M125 15.6202V21.7002H122V15.8802C122 14.8802 121.53 14.2602 120.58 14.2602C119.63 14.2602 119.03 14.9502 119.03 16.1202V21.7002H116.03V15.8802C116.03 14.8802 115.56 14.2602 114.61 14.2602C113.66 14.2602 113.06 14.9502 113.06 16.1202V21.7002H110.06V11.8002H113.06V12.7102C113.371 12.3082 113.776 11.9898 114.241 11.7838C114.705 11.5778 115.214 11.4906 115.72 11.5302C116.227 11.5037 116.733 11.6097 117.187 11.8376C117.641 12.0655 118.028 12.4076 118.31 12.8302C118.64 12.3886 119.076 12.0378 119.578 11.8105C120.079 11.5831 120.631 11.4867 121.18 11.5302C123.52 11.5302 125 13.1502 125 15.6202Z" fill="#6F6F6F"/>
<path d="M13.45 4.6499V0.399902H0.0500031V29.5999H13.45V25.3499C10.705 25.3499 8.07245 24.2595 6.13145 22.3185C4.19045 20.3775 3.1 17.7449 3.1 14.9999C3.1 12.2549 4.19045 9.62235 6.13145 7.68135C8.07245 5.74035 10.705 4.6499 13.45 4.6499Z" fill="#6F6F6F"/>
<path d="M13.45 4.6499V25.3499C16.195 25.3499 18.8275 24.2595 20.7686 22.3185C22.7096 20.3775 23.8 17.7449 23.8 14.9999C23.8 12.2549 22.7096 9.62235 20.7686 7.68135C18.8275 5.74035 16.195 4.6499 13.45 4.6499Z" fill="#6F6F6F"/>
<path d="M127.52 11.7398C128.735 11.7398 129.72 10.7549 129.72 9.53984C129.72 8.32482 128.735 7.33984 127.52 7.33984C126.305 7.33984 125.32 8.32482 125.32 9.53984C125.32 10.7549 126.305 11.7398 127.52 11.7398Z" fill="#6F6F6F"/>
</svg>
