<svg width="137" height="28" viewBox="0 0 137 28" fill="none" xmlns="http://www.w3.org/2000/svg">
<path d="M21.0991 12.3708C20.7201 12.7521 20.4299 13.2122 20.2491 13.7185C20.0683 14.2248 20.0014 14.7647 20.0531 15.2998L20.0351 15.2818C20.0882 15.9116 20.0033 16.5455 19.7862 17.1391C19.5691 17.7328 19.2251 18.2719 18.7781 18.7188C18.3312 19.1658 17.7921 19.5098 17.1984 19.7269C16.6048 19.944 15.9709 20.0289 15.3411 19.9758L15.3591 19.9938C14.6057 19.9236 13.8489 20.0876 13.1921 20.4633C12.5353 20.839 12.0103 21.4081 11.6888 22.0931C11.3672 22.778 11.2648 23.5455 11.3954 24.2908C11.526 25.0361 11.8834 25.723 12.4186 26.2579C12.9539 26.7927 13.6412 27.1494 14.3866 27.2793C15.132 27.4092 15.8994 27.3061 16.5841 26.984C17.2688 26.6618 17.8374 26.1363 18.2125 25.4792C18.5876 24.822 18.7509 24.0651 18.6801 23.3118L18.6991 23.3298C18.6459 22.6999 18.7308 22.0661 18.9479 21.4724C19.165 20.8788 19.5091 20.3397 19.956 19.8927C20.403 19.4457 20.9421 19.1017 21.5357 18.8846C22.1294 18.6675 22.7632 18.5826 23.3931 18.6358L23.3741 18.6178C23.9895 18.6731 24.609 18.5722 25.1751 18.3244C25.7411 18.0766 26.2355 17.6899 26.6123 17.2002C26.9891 16.7104 27.2362 16.1335 27.3307 15.5228C27.4252 14.9122 27.364 14.2875 27.1528 13.7068C26.9416 13.1261 26.5872 12.6081 26.1225 12.2008C25.6578 11.7935 25.0978 11.5101 24.4944 11.3769C23.891 11.2436 23.2637 11.2649 22.6707 11.4386C22.0777 11.6124 21.5382 11.933 21.1021 12.3708H21.0991Z" fill="#6F6F6F"/>
<path d="M13.7221 17.6362L13.7031 17.6182C14.2384 17.6722 14.779 17.6065 15.2859 17.4259C15.7927 17.2453 16.253 16.9543 16.6336 16.574C17.0142 16.1937 17.3055 15.7336 17.4865 15.2269C17.6675 14.7202 17.7336 14.1796 17.6801 13.6442L17.6991 13.6622C17.6459 13.0324 17.7308 12.3985 17.9479 11.8049C18.165 11.2112 18.5091 10.6721 18.956 10.2252C19.403 9.77822 19.9421 9.43419 20.5357 9.2171C21.1294 9 21.7632 8.91507 22.3931 8.96824L22.3741 8.95024C23.1276 9.021 23.8845 8.85761 24.5417 8.48234C25.1989 8.10708 25.7244 7.53822 26.0464 6.85335C26.3684 6.16848 26.4713 5.40095 26.3411 4.65544C26.2109 3.90994 25.8538 3.22275 25.3187 2.68762C24.7836 2.15248 24.0964 1.79545 23.3509 1.66522C22.6054 1.53499 21.8378 1.6379 21.153 1.95992C20.4681 2.28194 19.8992 2.80738 19.524 3.46459C19.1487 4.12179 18.9853 4.87876 19.0561 5.63224L19.0381 5.61324C19.0914 6.24313 19.0066 6.87707 18.7896 7.4708C18.5726 8.06452 18.2285 8.6037 17.7815 9.0507C17.3345 9.49769 16.7954 9.84172 16.2016 10.0588C15.6079 10.2758 14.974 10.3606 14.3441 10.3072L14.3621 10.3262C13.8268 10.2723 13.2861 10.338 12.7793 10.5186C12.2725 10.6992 11.8121 10.9902 11.4315 11.3705C11.0509 11.7508 10.7596 12.2109 10.5786 12.7176C10.3977 13.2243 10.3315 13.7649 10.3851 14.3002L10.3671 14.2822C10.4201 14.9121 10.335 15.5458 10.1179 16.1394C9.90071 16.733 9.55668 17.272 9.10976 17.7189C8.66284 18.1658 8.1238 18.5099 7.53024 18.727C6.93668 18.9442 6.30289 19.0292 5.67308 18.9762L5.69108 18.9942C4.9376 18.9235 4.18063 19.0869 3.52343 19.4621C2.86622 19.8374 2.34078 20.4063 2.01876 21.0911C1.69674 21.776 1.59383 22.5435 1.72406 23.289C1.85429 24.0345 2.21132 24.7217 2.74646 25.2569C3.28159 25.792 3.96878 26.149 4.71428 26.2793C5.45979 26.4095 6.22732 26.3066 6.91219 25.9846C7.59706 25.6625 8.16592 25.1371 8.54118 24.4799C8.91645 23.8227 9.07984 23.0657 9.00908 22.3122L9.02808 22.3302C8.97491 21.7004 9.05984 21.0665 9.27693 20.4729C9.49403 19.8792 9.83806 19.3401 10.285 18.8932C10.732 18.4462 11.2711 18.1022 11.8647 17.8851C12.4584 17.668 13.0922 17.5831 13.7221 17.6362Z" fill="#6F6F6F"/>
<path d="M7.02002 15.6289C7.39904 15.2477 7.68923 14.7875 7.86987 14.2812C8.05051 13.7749 8.11714 13.235 8.06502 12.6999L8.08402 12.7179C8.03081 12.0879 8.11578 11.4539 8.33299 10.8601C8.55019 10.2663 8.89441 9.72704 9.34159 9.28005C9.78877 8.83306 10.3281 8.48907 10.922 8.27212C11.5159 8.05516 12.15 7.97046 12.78 8.02394L12.761 8.00594C13.5142 8.07651 14.2709 7.91302 14.9278 7.53778C15.5847 7.16255 16.1099 6.59382 16.4317 5.90917C16.7535 5.22451 16.8563 4.45726 16.7261 3.71203C16.5959 2.9668 16.239 2.27988 15.704 1.74494C15.1691 1.21 14.4822 0.853081 13.7369 0.722857C12.9917 0.592633 12.2244 0.695444 11.5398 1.01727C10.8551 1.33909 10.2864 1.86426 9.91118 2.52116C9.53594 3.17806 9.37245 3.93472 9.44302 4.68794L9.42502 4.66994C9.47819 5.29979 9.39326 5.93366 9.17617 6.5273C8.95907 7.12094 8.61504 7.66005 8.16809 8.10701C7.72113 8.55396 7.18202 8.89799 6.58838 9.11509C5.99474 9.33218 5.36087 9.41711 4.73102 9.36394L4.74902 9.38194C4.13359 9.32675 3.51419 9.4278 2.9482 9.67572C2.38222 9.92364 1.88798 10.3104 1.51127 10.8002C1.13456 11.29 0.88757 11.8669 0.793195 12.4776C0.698819 13.0882 0.760108 13.7128 0.971383 14.2935C1.18266 14.8741 1.53708 15.3921 2.00181 15.7993C2.46654 16.2065 3.02654 16.4898 3.62992 16.623C4.2333 16.7562 4.86053 16.7349 5.45349 16.5611C6.04645 16.3874 6.58596 16.0667 7.02202 15.6289H7.02002Z" fill="#6F6F6F"/>
<path d="M37.9971 5.65479H40.9671V20.1078H37.9971V5.65479Z" fill="#6F6F6F"/>
<path d="M42.6491 15.1591C42.6449 14.1205 42.9491 13.104 43.5231 12.2383C44.0971 11.3727 44.9151 10.6969 45.8735 10.2966C46.8319 9.89622 47.8876 9.78931 48.9068 9.98939C49.926 10.1895 50.8629 10.6875 51.5988 11.4205C52.3347 12.1535 52.8365 13.0883 53.0407 14.1067C53.2448 15.1251 53.1421 16.1812 52.7456 17.1412C52.3491 18.1012 51.6766 18.9219 50.8133 19.4994C49.95 20.0768 48.9347 20.3851 47.8961 20.3851C47.2066 20.393 46.5225 20.2633 45.8837 20.0037C45.245 19.7442 44.6643 19.3598 44.1758 18.8733C43.6873 18.3867 43.3007 17.8076 43.0385 17.1699C42.7764 16.5322 42.644 15.8486 42.6491 15.1591ZM50.1731 15.1591C50.1607 14.7114 50.0166 14.2773 49.7588 13.911C49.5011 13.5448 49.1411 13.2626 48.7238 13.0999C48.3066 12.9371 47.8506 12.9009 47.4129 12.9959C46.9752 13.0909 46.5753 13.3128 46.263 13.6338C45.9507 13.9549 45.74 14.3608 45.6572 14.801C45.5744 15.2411 45.6232 15.6959 45.7975 16.1085C45.9717 16.5211 46.2637 16.8731 46.637 17.1206C47.0103 17.3681 47.4482 17.5001 47.8961 17.5001C48.2028 17.5083 48.5079 17.4529 48.7921 17.3373C49.0763 17.2217 49.3335 17.0484 49.5475 16.8285C49.7614 16.6085 49.9274 16.3466 50.0351 16.0593C50.1428 15.772 50.1897 15.4655 50.1731 15.1591Z" fill="#6F6F6F"/>
<path d="M64.9801 10.2088V19.6088C64.9801 22.9348 62.3861 24.3408 59.7531 24.3408C58.826 24.4102 57.8978 24.2229 57.0701 23.7996C56.2425 23.3762 55.5474 22.7331 55.0611 21.9408L57.5951 20.4758C57.7995 20.8888 58.1252 21.2296 58.5285 21.4524C58.9319 21.6753 59.3937 21.7696 59.8521 21.7228C60.1451 21.7634 60.4435 21.7376 60.7252 21.6473C61.0068 21.557 61.2646 21.4046 61.4794 21.2012C61.6942 20.9978 61.8605 20.7488 61.966 20.4724C62.0716 20.1961 62.1136 19.8996 62.0891 19.6048V18.6998C61.7413 19.1254 61.2986 19.4634 60.7966 19.687C60.2945 19.9105 59.747 20.0132 59.1981 19.9868C57.8919 19.9456 56.653 19.3978 55.7436 18.4593C54.8342 17.5207 54.3257 16.2652 54.3257 14.9583C54.3257 13.6515 54.8342 12.3959 55.7436 11.4574C56.653 10.5189 57.8919 9.97102 59.1981 9.92982C59.747 9.90348 60.2945 10.0062 60.7966 10.2297C61.2986 10.4532 61.7413 10.7913 62.0891 11.2168V10.2068L64.9801 10.2088ZM62.0901 14.9598C62.1101 14.4812 61.9863 14.0075 61.7348 13.5998C61.4833 13.1921 61.1155 12.8689 60.6788 12.672C60.2421 12.4751 59.7564 12.4133 59.2844 12.4947C58.8123 12.5761 58.3753 12.797 58.0298 13.1288C57.6843 13.4606 57.446 13.8882 57.3455 14.3567C57.2451 14.8251 57.2871 15.3128 57.4662 15.7571C57.6454 16.2015 57.9533 16.582 58.3506 16.8498C58.7478 17.1176 59.216 17.2604 59.6951 17.2598C60.0072 17.2816 60.3203 17.2378 60.6144 17.1312C60.9085 17.0246 61.177 16.8576 61.4026 16.6409C61.6282 16.4242 61.806 16.1627 61.9244 15.8732C62.0428 15.5836 62.0992 15.2725 62.0901 14.9598Z" fill="#6F6F6F"/>
<path d="M66.662 15.1591C66.6578 14.1205 66.962 13.104 67.5361 12.2383C68.1101 11.3727 68.9281 10.6969 69.8865 10.2966C70.8449 9.89622 71.9005 9.78931 72.9197 9.98939C73.9389 10.1895 74.8758 10.6875 75.6117 11.4205C76.3476 12.1535 76.8494 13.0883 77.0536 14.1067C77.2578 15.1251 77.1551 16.1812 76.7586 17.1412C76.3621 18.1012 75.6896 18.9219 74.8263 19.4994C73.9629 20.0768 72.9477 20.3851 71.909 20.3851C71.2195 20.393 70.5354 20.2633 69.8967 20.0037C69.2579 19.7442 68.6773 19.3598 68.1888 18.8733C67.7002 18.3867 67.3136 17.8076 67.0514 17.1699C66.7893 16.5322 66.6569 15.8486 66.662 15.1591ZM74.186 15.1591C74.1736 14.7114 74.0295 14.2773 73.7718 13.911C73.514 13.5448 73.154 13.2626 72.7368 13.0999C72.3195 12.9371 71.8635 12.9009 71.4259 12.9959C70.9882 13.0909 70.5882 13.3128 70.2759 13.6338C69.9636 13.9549 69.7529 14.3608 69.6701 14.801C69.5873 15.2411 69.6361 15.6959 69.8104 16.1085C69.9847 16.5211 70.2767 16.8731 70.6499 17.1206C71.0232 17.3681 71.4611 17.5001 71.909 17.5001C72.2157 17.5083 72.5208 17.4529 72.805 17.3373C73.0893 17.2217 73.3465 17.0484 73.5604 16.8285C73.7743 16.6085 73.9404 16.3466 74.048 16.0593C74.1557 15.772 74.2027 15.4655 74.186 15.1591Z" fill="#6F6F6F"/>
<path d="M78.541 7.55593C78.541 7.20348 78.6455 6.85895 78.8413 6.5659C79.0371 6.27286 79.3155 6.04445 79.6411 5.90957C79.9667 5.7747 80.325 5.73941 80.6707 5.80817C81.0163 5.87693 81.3339 6.04665 81.5831 6.29586C81.8323 6.54508 82.002 6.8626 82.0708 7.20828C82.1395 7.55395 82.1042 7.91225 81.9694 8.23787C81.8345 8.56349 81.6061 8.8418 81.313 9.03761C81.02 9.23341 80.6755 9.33793 80.323 9.33793C79.8519 9.33324 79.4013 9.14399 79.0681 8.81081C78.735 8.47763 78.5457 8.02709 78.541 7.55593ZM78.841 10.2089H81.812V20.1089H78.837L78.841 10.2089Z" fill="#6F6F6F"/>
<path d="M94.6361 15.1588C94.6704 15.8131 94.5751 16.4677 94.3555 17.085C94.136 17.7023 93.7966 18.2701 93.3568 18.7558C92.917 19.2414 92.3856 19.6354 91.7931 19.9149C91.2005 20.1945 90.5586 20.3542 89.9041 20.3848C89.3537 20.4148 88.8036 20.322 88.2935 20.1131C87.7834 19.9041 87.3263 19.5843 86.9551 19.1768V24.0678H83.9851V10.2088H86.9551V11.1388C87.3264 10.7316 87.7837 10.412 88.2937 10.2033C88.8037 9.9945 89.3538 9.90177 89.9041 9.93179C90.5587 9.96225 91.2008 10.1219 91.7935 10.4015C92.3862 10.681 92.9177 11.0751 93.3575 11.5609C93.7973 12.0467 94.1367 12.6147 94.3561 13.2321C94.5755 13.8496 94.6707 14.5044 94.6361 15.1588ZM91.6661 15.1588C91.6545 14.6955 91.5065 14.2459 91.2406 13.8662C90.9747 13.4866 90.6028 13.1938 90.1713 13.0246C89.7399 12.8553 89.2681 12.817 88.815 12.9146C88.3619 13.0121 87.9477 13.2411 87.6241 13.5729C87.3005 13.9047 87.082 14.3246 86.9959 14.78C86.9098 15.2354 86.9599 15.7061 87.1399 16.1332C87.32 16.5602 87.6221 16.9247 88.0083 17.1809C88.3944 17.4372 88.8476 17.5738 89.3111 17.5738C89.6293 17.5879 89.9469 17.5347 90.243 17.4175C90.5392 17.3003 90.8073 17.1219 91.0296 16.8939C91.252 16.6658 91.4236 16.3934 91.5333 16.0944C91.643 15.7953 91.6883 15.4765 91.6661 15.1588Z" fill="#6F6F6F"/>
<path d="M103.801 17.1379C103.801 19.4149 101.822 20.3849 99.684 20.3849C98.8202 20.4631 97.9527 20.2804 97.1938 19.8604C96.4349 19.4404 95.8194 18.8024 95.427 18.0289L98 16.5639C98.1041 16.9214 98.3277 17.2324 98.6334 17.445C98.9392 17.6576 99.3086 17.7588 99.68 17.7319C100.392 17.7319 100.749 17.5139 100.749 17.1189C100.749 16.0289 95.878 16.6039 95.878 13.1789C95.878 11.0199 97.7 9.93185 99.759 9.93185C100.533 9.90736 101.299 10.0909 101.978 10.4635C102.657 10.836 103.224 11.3838 103.619 12.0499L101.085 13.4159C100.974 13.1565 100.789 12.9357 100.553 12.7808C100.317 12.6259 100.041 12.5438 99.759 12.5449C99.244 12.5449 98.927 12.7449 98.927 13.0989C98.931 14.2279 103.801 13.4749 103.801 17.1379Z" fill="#6F6F6F"/>
<path d="M114.65 10.209V20.109H111.68V19.178C111.337 19.5888 110.902 19.9125 110.41 20.1225C109.918 20.3325 109.384 20.4228 108.85 20.386C106.85 20.386 105.15 18.961 105.15 16.286V10.209H108.12V15.851C108.095 16.0868 108.122 16.3251 108.199 16.5495C108.275 16.7739 108.4 16.9788 108.564 17.1502C108.728 17.3215 108.927 17.455 109.148 17.5415C109.368 17.628 109.605 17.6654 109.842 17.651C110.931 17.651 111.683 17.018 111.683 15.612V10.212L114.65 10.209Z" fill="#6F6F6F"/>
<path d="M131.68 14.0302V20.1082H128.71V14.2872C128.71 13.2972 128.235 12.6642 127.285 12.6642C126.295 12.6642 125.74 13.3572 125.74 14.5252V20.1082H122.771V14.2872C122.771 13.2972 122.296 12.6642 121.345 12.6642C120.355 12.6642 119.801 13.3572 119.801 14.5252V20.1082H116.831V10.2082H119.801V11.1182C120.109 10.7145 120.513 10.3944 120.976 10.187C121.44 9.97966 121.948 9.89172 122.454 9.93123C122.962 9.90637 123.468 10.0136 123.923 10.2425C124.377 10.4714 124.764 10.8141 125.047 11.2372C125.376 10.7946 125.812 10.4426 126.314 10.2142C126.816 9.98576 127.368 9.88842 127.918 9.93123C130.191 9.93223 131.68 11.5552 131.68 14.0302Z" fill="#6F6F6F"/>
<path d="M134.192 10.1482C135.409 10.1482 136.396 9.16147 136.396 7.94423C136.396 6.727 135.409 5.74023 134.192 5.74023C132.975 5.74023 131.988 6.727 131.988 7.94423C131.988 9.16147 132.975 10.1482 134.192 10.1482Z" fill="#6F6F6F"/>
</svg>
