<svg width="128" height="30" viewBox="0 0 128 30" fill="none" xmlns="http://www.w3.org/2000/svg">
<path d="M36.29 9.26012H39.5V22.2601H36.29V9.26012ZM40.78 17.3701C40.78 14.1501 42.78 12.2201 45.78 12.2201C48.78 12.2201 50.78 14.1501 50.78 17.3701C50.78 20.5901 48.85 22.5401 45.78 22.5401C42.71 22.5401 40.78 20.6601 40.78 17.3701ZM47.6 17.3701C47.6 15.6001 46.91 14.5601 45.81 14.5601C44.71 14.5601 44.03 15.5601 44.03 17.3701C44.03 19.1801 44.71 20.1701 45.81 20.1701C46.91 20.1701 47.62 19.1801 47.62 17.3801L47.6 17.3701ZM52.06 22.9301H55.16C55.3011 23.2639 55.5476 23.5423 55.8618 23.7228C56.176 23.9034 56.5406 23.9762 56.9 23.9301C58.13 23.9301 58.77 23.2701 58.77 22.2901V20.4901H58.78C58.5151 21.0506 58.0867 21.5178 57.5513 21.8301C57.0158 22.1425 56.3983 22.2854 55.78 22.2401C53.43 22.2401 51.87 20.4501 51.87 17.3701C51.87 14.2901 53.36 12.3701 55.87 12.3701C56.5041 12.3362 57.1332 12.4997 57.6704 12.8382C58.2077 13.1767 58.6268 13.6735 58.87 14.2601H58.78V12.4501H61.96V22.1901C61.96 24.5401 59.88 26.0101 56.82 26.0101C54.04 26.0001 52.26 24.7301 52.08 22.9401L52.06 22.9301ZM58.78 17.3701C58.78 15.8001 58.06 14.8101 56.92 14.8101C55.78 14.8101 55.08 15.8101 55.08 17.3701C55.08 18.9301 55.77 19.8501 56.92 19.8501C58.07 19.8501 58.78 19.0001 58.78 17.3701ZM63.23 17.3701C63.23 14.1501 65.23 12.2201 68.23 12.2201C71.23 12.2201 73.23 14.1501 73.23 17.3701C73.23 20.5901 71.29 22.5401 68.23 22.5401C65.17 22.5401 63.25 20.6601 63.25 17.3701H63.23ZM70.05 17.3701C70.05 15.6001 69.35 14.5601 68.26 14.5601C67.17 14.5601 66.48 15.5601 66.48 17.3701C66.48 19.1801 67.16 20.1701 68.26 20.1701C69.36 20.1701 70.07 19.1801 70.07 17.3801L70.05 17.3701ZM74.53 10.0801C74.516 9.75314 74.6002 9.42945 74.7717 9.15071C74.9432 8.87197 75.1942 8.65091 75.4924 8.51598C75.7906 8.38105 76.1223 8.33842 76.4449 8.39357C76.7675 8.44872 77.0662 8.59914 77.3026 8.82546C77.539 9.05178 77.7023 9.34366 77.7715 9.66355C77.8406 9.98343 77.8125 10.3167 77.6907 10.6205C77.5689 10.9242 77.359 11.1846 77.088 11.3681C76.817 11.5516 76.4973 11.6498 76.17 11.6501C75.9609 11.6554 75.7527 11.6191 75.5577 11.5434C75.3627 11.4676 75.1846 11.3539 75.0339 11.2087C74.8832 11.0636 74.7628 10.89 74.6798 10.698C74.5967 10.5059 74.5526 10.2993 74.55 10.0901L74.53 10.0801ZM74.53 12.4401H77.78V22.3001H74.58L74.53 12.4401ZM89.47 17.3701C89.47 20.5801 88.03 22.4401 85.58 22.4401C84.9528 22.4788 84.3288 22.3241 83.7923 21.9968C83.2558 21.6695 82.8326 21.1855 82.58 20.6101H82.52V25.4701H79.31V12.4701H82.5V14.2301H82.56C82.804 13.6434 83.223 13.1461 83.7598 12.8061C84.2967 12.4661 84.9253 12.2999 85.56 12.3301C88.08 12.3101 89.53 14.1601 89.53 17.3801L89.47 17.3701ZM86.2 17.3701C86.2 15.8101 85.47 14.8001 84.34 14.8001C83.21 14.8001 82.5 15.8001 82.49 17.3701C82.48 18.9401 83.21 19.9301 84.34 19.9301C85.47 19.9301 86.26 19.0001 86.26 17.3801L86.2 17.3701ZM94.95 12.2101C97.64 12.2101 99.31 13.4801 99.33 15.5201H96.4C96.4 14.8101 95.81 14.3701 94.93 14.3701C94.05 14.3701 93.63 14.7101 93.63 15.2201C93.63 15.7301 94 15.8901 94.74 16.0401L96.8 16.4601C98.8 16.8801 99.6 17.6801 99.6 19.1701C99.6 21.1701 97.75 22.5301 95 22.5301C92.25 22.5301 90.46 21.2101 90.33 19.2001H93.44C93.53 19.9301 94.11 20.3601 95.05 20.3601C95.99 20.3601 96.43 20.0601 96.43 19.5301C96.43 19.0001 96.13 18.9101 95.36 18.7501L93.5 18.3601C91.57 17.9501 90.56 16.9401 90.56 15.4301C90.62 13.4701 92.3 12.2201 95.01 12.2201L94.95 12.2101ZM110.35 22.2901H107.24V20.4401H107.18C107.006 21.0572 106.627 21.5965 106.105 21.9692C105.583 22.3418 104.95 22.5256 104.31 22.4901C103.827 22.5059 103.345 22.4192 102.898 22.2359C102.451 22.0525 102.047 21.7766 101.714 21.4263C101.38 21.0759 101.125 20.6591 100.964 20.203C100.803 19.747 100.74 19.2621 100.78 18.7801V12.4501H103.99V18.0901C103.99 19.2501 104.6 19.8801 105.6 19.8801C105.835 19.8784 106.066 19.8263 106.279 19.7274C106.492 19.6285 106.681 19.4851 106.833 19.3069C106.986 19.1287 107.099 18.9198 107.164 18.6944C107.229 18.469 107.244 18.2322 107.21 18.0001V12.4501H110.41L110.35 22.2901ZM111.9 12.4401H115.02V14.3401H115.09C115.262 13.7315 115.632 13.1971 116.14 12.8208C116.649 12.4444 117.268 12.2472 117.9 12.2601C118.535 12.2049 119.168 12.3885 119.674 12.775C120.181 13.1616 120.525 13.7232 120.64 14.3501H120.78C120.98 13.7198 121.382 13.1732 121.925 12.7953C122.467 12.4173 123.12 12.2292 123.78 12.2601C124.219 12.2434 124.657 12.3196 125.064 12.4837C125.472 12.6478 125.84 12.896 126.145 13.2123C126.45 13.5285 126.684 13.9056 126.833 14.3188C126.983 14.732 127.043 15.172 127.01 15.6101V22.3001H123.78V16.4301C123.78 15.4301 123.31 14.8701 122.4 14.8701C122.198 14.8668 121.998 14.9072 121.813 14.9885C121.629 15.0697 121.464 15.19 121.33 15.341C121.196 15.4921 121.096 15.6703 121.037 15.8634C120.979 16.0566 120.963 16.2601 120.99 16.4601V22.3001H117.93V16.4001C117.93 15.4001 117.44 14.8701 116.56 14.8701C116.356 14.8685 116.154 14.9105 115.968 14.9934C115.781 15.0762 115.615 15.198 115.479 15.3504C115.344 15.5029 115.243 15.6826 115.183 15.8775C115.122 16.0723 115.104 16.2778 115.13 16.4801V22.3001H111.92L111.9 12.4401Z" fill="#6F6F6F"/>
<path d="M29.94 10.11C29.9401 8.11967 29.3391 6.17573 28.2156 4.53279C27.0922 2.88985 25.4988 1.6245 23.6441 0.902497C21.7893 0.180491 19.7598 0.0354893 17.8212 0.486481C15.8827 0.937473 14.1256 1.96343 12.78 3.42997H0.299988V29.77H26.65V17.46C27.6842 16.5349 28.5118 15.4022 29.0787 14.1358C29.6456 12.8693 29.9391 11.4975 29.94 10.11ZM24.87 10.11C24.872 11.0637 24.591 11.9966 24.0625 12.7905C23.5341 13.5845 22.782 14.2038 21.9015 14.5702C21.0209 14.9365 20.0514 15.0334 19.1158 14.8486C18.1801 14.6637 17.3204 14.2055 16.6453 13.5318C15.9702 12.8581 15.5101 11.9993 15.3233 11.064C15.1366 10.1287 15.2314 9.15908 15.5959 8.27776C15.9605 7.39643 16.5782 6.64306 17.3711 6.11299C18.164 5.58292 19.0963 5.29997 20.05 5.29997C21.3266 5.29997 22.5511 5.80642 23.4547 6.70818C24.3584 7.60994 24.8673 8.83336 24.87 10.11ZM21.58 24.7H5.36999V8.49997H10.31C10.2146 9.03144 10.1644 9.57003 10.16 10.11C10.1626 12.7322 11.2055 15.2462 13.0596 17.1003C14.9138 18.9545 17.4278 19.9973 20.05 20C20.5626 19.9973 21.0742 19.9538 21.58 19.87V24.7Z" fill="#6F6F6F"/>
</svg>
