<svg width="124" height="30" viewBox="0 0 124 30" fill="none" xmlns="http://www.w3.org/2000/svg">
<path d="M26.85 10.71C27.21 10.71 27.33 10.84 27.33 11.19V19.11H31.4C31.75 19.11 31.88 19.24 31.88 19.59V20.29C31.88 20.64 31.75 20.77 31.4 20.77H26.04C25.69 20.77 25.55 20.64 25.55 20.29V11.19C25.55 10.84 25.69 10.71 26.04 10.71H26.85Z" fill="#6F6F6F"/>
<path d="M35.4301 14.2C35.4301 11.89 36.89 10.5 39.43 10.5C41.97 10.5 43.43 11.89 43.43 14.2V17.28C43.43 19.59 41.96 20.98 39.43 20.98C36.9 20.98 35.4301 19.59 35.4301 17.28V14.2ZM41.75 14.2C41.75 12.9 40.9401 12.2 39.4801 12.2C38.0201 12.2 37.2201 12.91 37.2201 14.2V17.3C37.2201 18.61 38.0201 19.3 39.4801 19.3C40.9401 19.3 41.75 18.58 41.75 17.3V14.2Z" fill="#6F6F6F"/>
<path d="M55.34 15.26C55.73 15.26 55.82 15.39 55.82 15.74V17.64C55.8306 18.0875 55.7409 18.5317 55.5575 18.9401C55.3741 19.3485 55.1016 19.7106 54.76 20C53.9117 20.6755 52.8421 21.0106 51.76 20.94C49.17 20.94 47.76 19.55 47.76 17.24V14.14C47.76 11.86 49.22 10.46 51.76 10.46C53.76 10.46 55.06 11.25 55.61 12.83C55.6408 12.8893 55.6573 12.9551 55.6582 13.0219C55.6591 13.0888 55.6444 13.1549 55.6153 13.2151C55.5862 13.2753 55.5434 13.3279 55.4904 13.3686C55.4374 13.4094 55.3757 13.4372 55.31 13.45L54.53 13.72C54.19 13.84 54.05 13.77 53.93 13.42C53.7644 12.9928 53.4611 12.6331 53.068 12.3977C52.675 12.1622 52.2148 12.0645 51.76 12.12C50.29 12.12 49.49 12.83 49.49 14.12V17.3C49.49 18.61 50.3 19.3 51.76 19.3C53.22 19.3 54.12 18.63 54.12 17.65V16.91H51.95C51.59 16.91 51.46 16.77 51.46 16.42V15.74C51.46 15.39 51.59 15.26 51.95 15.26H55.34Z" fill="#6F6F6F"/>
<path d="M59.95 14.2C59.95 11.89 61.41 10.5 63.95 10.5C66.49 10.5 67.95 11.89 67.95 14.2V17.28C67.95 19.59 66.48 20.98 63.95 20.98C61.42 20.98 59.95 19.59 59.95 17.28V14.2ZM66.2599 14.2C66.2599 12.9 65.4499 12.2 63.9999 12.2C62.5499 12.2 61.7299 12.91 61.7299 14.2V17.3C61.7299 18.61 62.5399 19.3 63.9999 19.3C65.4599 19.3 66.2599 18.58 66.2599 17.3V14.2Z" fill="#6F6F6F"/>
<path d="M72.66 11C72.66 10.78 72.73 10.71 72.95 10.71H73.41C73.63 10.71 73.68 10.78 73.68 11V20.48C73.68 20.7 73.68 20.77 73.41 20.77H72.95C72.73 20.77 72.66 20.7 72.66 20.48V11Z" fill="#6F6F6F"/>
<path d="M82.79 10.71C83.6228 10.71 84.4215 11.0408 85.0103 11.6296C85.5992 12.2185 85.93 13.0172 85.93 13.85C85.93 14.6827 85.5992 15.4814 85.0103 16.0703C84.4215 16.6591 83.6228 16.99 82.79 16.99H79.79V20.48C79.79 20.7 79.74 20.77 79.53 20.77H79.06C78.85 20.77 78.77 20.7 78.77 20.48V11C78.77 10.78 78.85 10.71 79.06 10.71H82.79ZM82.7 16C82.9863 16 83.2698 15.9436 83.5343 15.834C83.7988 15.7245 84.0391 15.5639 84.2415 15.3615C84.4439 15.159 84.6045 14.9187 84.7141 14.6542C84.8236 14.3897 84.88 14.1062 84.88 13.82C84.88 13.5337 84.8236 13.2502 84.7141 12.9857C84.6045 12.7212 84.4439 12.4809 84.2415 12.2785C84.0391 12.076 83.7988 11.9155 83.5343 11.8059C83.2698 11.6963 82.9863 11.64 82.7 11.64H79.7V16H82.7Z" fill="#6F6F6F"/>
<path d="M93.74 10.5101C94.5121 10.4249 95.291 10.591 95.9612 10.9837C96.6314 11.3764 97.157 11.9748 97.46 12.6901C97.54 12.8501 97.46 12.9801 97.3 13.0601L96.86 13.2601C96.68 13.3301 96.61 13.3201 96.5 13.1301C96.2734 12.5993 95.8839 12.1543 95.3878 11.8594C94.8916 11.5646 94.3145 11.4353 93.74 11.4901C92.05 11.4901 91.13 12.1601 91.13 13.3601C91.1202 13.7268 91.2434 14.0847 91.4768 14.3678C91.7102 14.6508 92.0381 14.8399 92.4 14.9001C92.9378 15.0755 93.4955 15.183 94.06 15.2201C94.7433 15.2565 95.4174 15.3947 96.06 15.6301C96.5526 15.7859 96.9766 16.1066 97.2607 16.5382C97.5447 16.9698 97.6716 17.486 97.62 18.0001C97.62 19.8701 96.26 21.0001 93.76 21.0001C92.94 21.0939 92.1126 20.9039 91.4157 20.4617C90.7188 20.0195 90.1944 19.3519 89.93 18.5701C89.9123 18.5344 89.9028 18.4953 89.902 18.4556C89.9013 18.4158 89.9093 18.3763 89.9255 18.34C89.9418 18.3037 89.9658 18.2715 89.996 18.2455C90.0261 18.2196 90.0617 18.2007 90.1 18.1901L90.54 18.0301C90.5746 18.0159 90.6119 18.0091 90.6493 18.0101C90.6867 18.0111 90.7235 18.0199 90.7574 18.0359C90.7912 18.0519 90.8214 18.0747 90.846 18.103C90.8705 18.1312 90.8889 18.1643 90.9 18.2001C91.1237 18.765 91.5215 19.244 92.0357 19.5676C92.55 19.8913 93.1539 20.0427 93.76 20.0001C95.65 20.0001 96.58 19.3401 96.58 18.0001C96.5976 17.6478 96.4897 17.3008 96.2754 17.0206C96.0612 16.7405 95.7545 16.5454 95.41 16.4701C94.8926 16.3157 94.359 16.2218 93.82 16.1901L92.74 16.0501C92.402 15.9783 92.0682 15.8882 91.74 15.7801C91.4158 15.6822 91.1136 15.5226 90.85 15.3101C90.5847 15.0699 90.3756 14.7742 90.2373 14.4441C90.0991 14.1141 90.0351 13.7576 90.05 13.4001C90.12 11.6501 91.43 10.5101 93.74 10.5101Z" fill="#6F6F6F"/>
<path d="M103.01 17.35C103.052 18.0571 103.363 18.7214 103.879 19.2071C104.395 19.6928 105.077 19.9633 105.785 19.9633C106.493 19.9633 107.175 19.6928 107.691 19.2071C108.207 18.7214 108.518 18.0571 108.56 17.35V11C108.56 10.78 108.63 10.71 108.85 10.71H109.31C109.53 10.71 109.6 10.78 109.6 11V17.34C109.6 19.61 108.26 20.98 105.79 20.98C103.32 20.98 101.98 19.61 101.98 17.34V11C101.98 10.78 102.05 10.71 102.26 10.71H102.73C102.94 10.71 103.01 10.78 103.01 11V17.35Z" fill="#6F6F6F"/>
<path d="M123.4 10.7102C123.62 10.7102 123.69 10.7802 123.69 11.0002V20.4802C123.69 20.7002 123.62 20.7702 123.4 20.7702H122.98C122.77 20.7702 122.7 20.7002 122.7 20.4802V14.7102C122.7 13.8707 122.757 13.0321 122.87 12.2002H122.81C122.498 12.9609 122.133 13.6993 121.72 14.4102L119.57 18.2002C119.544 18.266 119.498 18.3222 119.439 18.3615C119.38 18.4008 119.311 18.4212 119.24 18.4202H118.96C118.888 18.4206 118.818 18.3999 118.757 18.3609C118.697 18.3218 118.649 18.266 118.62 18.2002L116.44 14.3702C116.053 13.6695 115.719 12.9408 115.44 12.1902H115.38C115.482 13.0297 115.536 13.8745 115.54 14.7202V20.4802C115.54 20.7002 115.47 20.7702 115.25 20.7702H114.86C114.64 20.7702 114.57 20.7002 114.57 20.4802V11.0002C114.57 10.7802 114.64 10.7102 114.86 10.7102H115.22C115.302 10.7026 115.385 10.7206 115.456 10.7617C115.528 10.8029 115.585 10.8653 115.62 10.9402L119.12 17.1602L122.6 11.0002C122.71 10.7902 122.77 10.7602 122.99 10.7602L123.4 10.7102Z" fill="#6F6F6F"/>
<path d="M9.05996 18.5498V25.7798C9.05996 26.0569 8.94986 26.3227 8.75388 26.5187C8.55791 26.7147 8.29211 26.8248 8.01496 26.8248C7.73781 26.8248 7.47201 26.7147 7.27603 26.5187C7.08006 26.3227 6.96996 26.0569 6.96996 25.7798V18.5598C7.26092 18.7722 7.60979 18.8909 7.96996 18.8998C8.36259 18.911 8.74725 18.7875 9.05996 18.5498ZM17.96 16.4598C17.6947 16.4598 17.4404 16.5651 17.2528 16.7527C17.0653 16.9402 16.96 17.1945 16.96 17.4598V18.7198C16.96 18.9969 17.0701 19.2627 17.266 19.4587C17.462 19.6547 17.7278 19.7648 18.005 19.7648C18.2821 19.7648 18.5479 19.6547 18.7439 19.4587C18.9399 19.2627 19.05 18.9969 19.05 18.7198V17.5098C19.0577 17.3664 19.0345 17.223 18.982 17.0894C18.9294 16.9557 18.8486 16.835 18.7452 16.7354C18.6418 16.6358 18.5181 16.5596 18.3826 16.512C18.2471 16.4644 18.103 16.4466 17.96 16.4598ZM4.69996 21.2898C4.34012 21.279 3.99179 21.1605 3.69996 20.9498V28.1998C3.69996 28.4782 3.81058 28.7453 4.00749 28.9422C4.20441 29.1391 4.47148 29.2498 4.74996 29.2498C5.02843 29.2498 5.29551 29.1391 5.49242 28.9422C5.68933 28.7453 5.79996 28.4782 5.79996 28.1998V20.9998C5.47341 21.2108 5.08812 21.3124 4.69996 21.2898ZM14.7 14.2898C14.5645 14.283 14.4291 14.3038 14.3019 14.351C14.1747 14.3983 14.0585 14.4708 13.9603 14.5644C13.8621 14.6579 13.7839 14.7705 13.7306 14.8952C13.6772 15.0199 13.6498 15.1541 13.65 15.2898V20.8598C13.65 21.1382 13.7606 21.4053 13.9575 21.6022C14.1544 21.7991 14.4215 21.9098 14.7 21.9098C14.9784 21.9098 15.2455 21.7991 15.4424 21.6022C15.6393 21.4053 15.75 21.1382 15.75 20.8598V15.3598C15.7579 15.2155 15.7345 15.0711 15.6814 14.9367C15.6282 14.8023 15.5465 14.681 15.442 14.5812C15.3374 14.4814 15.2125 14.4055 15.0757 14.3586C14.939 14.3118 14.7937 14.2951 14.65 14.3098L14.7 14.2898ZM11.38 16.4298C11.0033 16.4272 10.6366 16.3085 10.33 16.0898V23.3598C10.33 23.6382 10.4406 23.9053 10.6375 24.1022C10.8344 24.2991 11.1015 24.4098 11.38 24.4098C11.6584 24.4098 11.9255 24.2991 12.1224 24.1022C12.3193 23.9053 12.43 23.6382 12.43 23.3598V16.0998C12.1127 16.3361 11.7254 16.4593 11.33 16.4498L11.38 16.4298ZM2.42996 21.9998V1.68977C2.42732 1.4422 2.32713 1.20567 2.15113 1.03154C1.97513 0.857417 1.73754 0.759752 1.48996 0.759766H1.26996C1.02238 0.759752 0.784787 0.857417 0.608788 1.03154C0.432788 1.20567 0.33259 1.4422 0.329956 1.68977V21.9998C0.329956 22.2491 0.428992 22.4882 0.605276 22.6644C0.78156 22.8407 1.02065 22.9398 1.26996 22.9398H1.48996C1.73926 22.9398 1.97835 22.8407 2.15464 22.6644C2.33092 22.4882 2.42996 22.2491 2.42996 21.9998ZM4.80996 20.5198H4.58996C4.34065 20.5198 4.10156 20.4207 3.92528 20.2444C3.74899 20.0682 3.64996 19.8291 3.64996 19.5798V4.10977C3.65259 3.8622 3.75279 3.62567 3.92879 3.45154C4.10479 3.27741 4.34238 3.17975 4.58996 3.17977H4.80996C5.05754 3.17975 5.29513 3.27741 5.47113 3.45154C5.64713 3.62567 5.74732 3.8622 5.74996 4.10977V19.5998C5.74996 19.8491 5.65092 20.0882 5.47464 20.2644C5.29835 20.4407 5.05926 20.5398 4.80996 20.5398V20.5198ZM8.11996 18.1398H7.88996C7.64331 18.1398 7.40676 18.0418 7.23235 17.8674C7.05794 17.693 6.95996 17.4564 6.95996 17.2098V6.50977C6.95863 6.3868 6.98171 6.26479 7.02786 6.1508C7.074 6.03681 7.1423 5.9331 7.22879 5.84568C7.31528 5.75826 7.41824 5.68886 7.53173 5.6415C7.64522 5.59414 7.76698 5.56976 7.88996 5.56977H8.11996C8.36752 5.5724 8.60406 5.6726 8.77818 5.8486C8.95231 6.0246 9.04997 6.26219 9.04996 6.50977V17.2098C9.04996 17.4564 8.95197 17.693 8.77757 17.8674C8.60316 18.0418 8.36661 18.1398 8.11996 18.1398ZM11.43 15.6898H11.22C10.9724 15.6898 10.7348 15.5921 10.5588 15.418C10.3828 15.2439 10.2826 15.0073 10.28 14.7598V8.99977C10.2717 8.87137 10.29 8.74266 10.3335 8.62159C10.3771 8.50053 10.445 8.3897 10.5331 8.29595C10.6213 8.20221 10.7277 8.12755 10.8458 8.0766C10.964 8.02566 11.0913 7.99951 11.22 7.99977H11.44C11.6893 7.99977 11.9284 8.0988 12.1046 8.27509C12.2809 8.45137 12.38 8.69046 12.38 8.93977V14.7398C12.3813 14.8641 12.3579 14.9874 12.3113 15.1026C12.2646 15.2178 12.1956 15.3226 12.1082 15.4109C12.0208 15.4993 11.9167 15.5694 11.802 15.6173C11.6873 15.6651 11.5642 15.6898 11.44 15.6898H11.43ZM14.75 13.5398H14.53C14.2807 13.5398 14.0416 13.4407 13.8653 13.2644C13.689 13.0882 13.59 12.8491 13.59 12.5998V11.1098C13.5926 10.8622 13.6928 10.6257 13.8688 10.4515C14.0448 10.2774 14.2824 10.1798 14.53 10.1798H14.75C14.9975 10.1798 15.2351 10.2774 15.4111 10.4515C15.5871 10.6257 15.6873 10.8622 15.69 11.1098V12.5998C15.69 12.8473 15.5923 13.0849 15.4182 13.2609C15.2441 13.4369 15.0075 13.5371 14.76 13.5398H14.75Z" fill="#6F6F6F"/>
</svg>
