<svg width="123" height="35" viewBox="0 0 123 35" fill="none" xmlns="http://www.w3.org/2000/svg">
<path d="M17.5 0C15.2019 0 12.9262 0.4527 10.803 1.3321C8.6798 2.2116 6.7507 3.5006 5.1256 5.1256C3.5006 6.7507 2.2116 8.6798 1.3321 10.803C0.4527 12.9262 0 15.2019 0 17.5C0 19.7981 0.4527 22.0738 1.3321 24.197C2.2116 26.3202 3.5006 28.2493 5.1256 29.8744C6.7507 31.4994 8.6798 32.7884 10.803 33.6679C12.9262 34.5473 15.2019 35 17.5 35V26.25C16.3509 26.25 15.2131 26.0237 14.1515 25.5839C13.0899 25.1442 12.1253 24.4997 11.3128 23.6872C10.5003 22.8747 9.8558 21.9101 9.4161 20.8485C8.9763 19.7869 8.75 18.6491 8.75 17.5C8.75 16.3509 8.9763 15.2131 9.4161 14.1515C9.8558 13.0899 10.5003 12.1253 11.3128 11.3128C12.1253 10.5003 13.0899 9.8558 14.1515 9.4161C15.2131 8.9763 16.3509 8.75 17.5 8.75V0Z" fill="#6F6F6F"/>
<path d="M17.5001 23.3332C20.7218 23.3332 23.3334 20.7215 23.3334 17.4998C23.3334 14.2782 20.7218 11.6665 17.5001 11.6665C14.2784 11.6665 11.6668 14.2782 11.6668 17.4998C11.6668 20.7215 14.2784 23.3332 17.5001 23.3332Z" fill="#6F6F6F"/>
<path d="M0 17.5C0 19.7981 0.4527 22.0738 1.3321 24.197C2.2116 26.3202 3.5006 28.2493 5.1256 29.8744C6.7507 31.4994 8.6798 32.7884 10.803 33.6679C12.9262 34.5473 15.2019 35 17.5 35C19.7981 35 22.0738 34.5473 24.197 33.6679C26.3202 32.7884 28.2493 31.4994 29.8744 29.8744C31.4994 28.2493 32.7884 26.3202 33.6679 24.197C34.5473 22.0738 35 19.7981 35 17.5H26.25C26.25 18.6491 26.0237 19.7869 25.5839 20.8485C25.1442 21.9101 24.4997 22.8747 23.6872 23.6872C22.8747 24.4997 21.9101 25.1442 20.8485 25.5839C19.7869 26.0237 18.6491 26.25 17.5 26.25C16.3509 26.25 15.2131 26.0237 14.1515 25.5839C13.0899 25.1442 12.1253 24.4997 11.3128 23.6872C10.5003 22.8747 9.8558 21.9101 9.4161 20.8485C8.9763 19.7869 8.75 18.6491 8.75 17.5H0Z" fill="#6F6F6F"/>
<path d="M23.3334 17.4999C23.3334 15.9528 22.7188 14.4691 21.6249 13.3751C20.5309 12.2811 19.0472 11.6665 17.5001 11.6665C15.953 11.6665 14.4693 12.2811 13.3753 13.3751C12.2813 14.4691 11.6667 15.9528 11.6667 17.4999H17.5001H23.3334Z" fill="#6F6F6F"/>
<path d="M44.1396 10.9248H41.9661V22.9998H44.1396V10.9248Z" fill="#6F6F6F"/>
<path d="M45.5589 18.7221C45.5589 21.5166 47.4909 23.2416 50.0439 23.2416C52.5969 23.2416 54.5289 21.5166 54.5289 18.7221C54.5289 15.9276 52.5969 14.2026 50.0439 14.2026C47.4909 14.2026 45.5589 15.9276 45.5589 18.7221ZM47.7324 18.7221C47.7324 17.0661 48.6984 16.1001 50.0439 16.1001C51.3894 16.1001 52.3554 17.0661 52.3554 18.7221C52.3554 20.3781 51.3894 21.3441 50.0439 21.3441C48.6984 21.3441 47.7324 20.3781 47.7324 18.7221Z" fill="#6F6F6F"/>
<path d="M62.296 14.4441V15.5998H62.1235C61.606 14.8581 60.778 14.2026 59.2945 14.2026C57.259 14.2026 55.4305 15.9276 55.4305 18.5841C55.4305 21.2406 57.259 22.9656 59.2945 22.9656C60.778 22.9656 61.606 22.2928 62.089 21.6201H62.2615V22.4481C62.2615 24.1041 61.2955 24.8631 59.881 24.8631C58.4665 24.8631 57.742 24.1041 57.4487 23.1208L55.4995 23.9661C55.948 25.2598 57.259 26.6916 59.9155 26.6916C62.641 26.6916 64.435 25.2598 64.435 22.4998V14.4441H62.296ZM59.95 21.1026C58.6045 21.1026 57.604 20.1366 57.604 18.5841C57.604 17.0316 58.6045 16.0656 59.95 16.0656C61.2955 16.0656 62.296 17.0316 62.296 18.5841C62.296 20.1366 61.2955 21.1026 59.95 21.1026Z" fill="#6F6F6F"/>
<path d="M65.8411 18.7221C65.8411 21.5166 67.7731 23.2416 70.3261 23.2416C72.8791 23.2416 74.811 21.5166 74.811 18.7221C74.811 15.9276 72.8791 14.2026 70.3261 14.2026C67.7731 14.2026 65.8411 15.9276 65.8411 18.7221ZM68.0146 18.7221C68.0146 17.0661 68.9806 16.1001 70.3261 16.1001C71.6716 16.1001 72.6376 17.0661 72.6376 18.7221C72.6376 20.3781 71.6716 21.3441 70.3261 21.3441C68.9806 21.3441 68.0146 20.3781 68.0146 18.7221Z" fill="#6F6F6F"/>
<path d="M76.517 11.9601C76.517 12.8399 77.19 13.4436 78.053 13.4436C78.915 13.4436 79.588 12.8399 79.588 11.9601C79.588 11.0804 78.915 10.4766 78.053 10.4766C77.19 10.4766 76.517 11.0804 76.517 11.9601ZM79.139 14.4441H76.966V23.0001H79.139V14.4441Z" fill="#6F6F6F"/>
<path d="M81.076 26.4501H83.25V21.8961H83.422C83.905 22.5861 84.733 23.2416 86.217 23.2416C88.252 23.2416 90.081 21.5166 90.081 18.7221C90.081 15.9276 88.252 14.2026 86.217 14.2026C84.733 14.2026 83.905 14.8581 83.388 15.5999H83.215V14.4441H81.076V26.4501ZM85.561 21.3786C84.216 21.3786 83.215 20.4126 83.215 18.7221C83.215 17.0316 84.216 16.0656 85.561 16.0656C86.907 16.0656 87.907 17.0316 87.907 18.7221C87.907 20.4126 86.907 21.3786 85.561 21.3786Z" fill="#6F6F6F"/>
<path d="M91.349 16.8419C91.349 18.5324 92.763 19.1534 94.557 19.4984L95.006 19.5846C96.075 19.7916 96.558 20.0504 96.558 20.6024C96.558 21.1544 96.075 21.5856 95.075 21.5856C94.074 21.5856 93.264 21.1716 93.039 19.9296L91.038 20.4471C91.332 22.2411 92.832 23.2416 95.075 23.2416C97.248 23.2416 98.663 22.2239 98.663 20.4299C98.663 18.6358 97.214 18.1529 95.282 17.7734L94.833 17.6871C93.936 17.5146 93.453 17.2731 93.453 16.7039C93.453 16.1864 93.902 15.8586 94.73 15.8586C95.558 15.8586 96.144 16.2036 96.351 17.1351L98.318 16.5314C97.904 15.1514 96.645 14.2026 94.73 14.2026C92.694 14.2026 91.349 15.1514 91.349 16.8419Z" fill="#6F6F6F"/>
<path d="M108.426 22.9998V14.4438H106.253V18.8598C106.253 20.4468 105.477 21.3783 104.148 21.3783C102.975 21.3783 102.32 20.7401 102.32 19.4463V14.4438H100.146V19.5498C100.146 21.6716 101.475 23.1378 103.476 23.1378C105.045 23.1378 105.77 22.4478 106.115 21.7233H106.287V22.9998H108.426Z" fill="#6F6F6F"/>
<path d="M110.354 14.4442V23.0002H112.528V17.8942C112.528 16.7212 113.08 16.0657 114.08 16.0657C114.943 16.0657 115.46 16.5487 115.46 17.4802V23.0002H117.634V17.8942C117.634 16.7212 118.186 16.0657 119.186 16.0657C120.049 16.0657 120.566 16.5487 120.566 17.4802V23.0002H122.74V17.3767C122.74 15.3067 121.463 14.3062 119.876 14.3062C118.479 14.3062 117.841 14.9272 117.427 15.6517H117.254C116.857 14.841 116.15 14.3062 114.908 14.3062C113.666 14.3062 112.993 14.8582 112.666 15.5137H112.493V14.4442H110.354Z" fill="#6F6F6F"/>
</svg>
