<svg width="119" height="24" viewBox="0 0 119 24" fill="none" xmlns="http://www.w3.org/2000/svg">
<path d="M38.44 19.3901C37.8452 19.4223 37.2569 19.2532 36.77 18.9101C36.5665 18.7592 36.4028 18.5612 36.2931 18.3329C36.1833 18.1047 36.1308 17.8532 36.14 17.6001V8.33006C36.1351 8.29081 36.1393 8.25097 36.1521 8.21358C36.165 8.17618 36.1862 8.1422 36.2142 8.11424C36.2421 8.08627 36.2761 8.06506 36.3135 8.0522C36.3509 8.03935 36.3907 8.0352 36.43 8.04006H38.11C38.3 8.04006 38.39 8.14006 38.39 8.33006V16.8801C38.39 17.2601 38.56 17.4501 38.91 17.4501C39.0583 17.4562 39.2068 17.4393 39.35 17.4001C39.55 17.4001 39.66 17.4601 39.67 17.6401L39.82 18.8901C39.8272 18.9265 39.8265 18.9641 39.818 19.0002C39.8094 19.0364 39.7932 19.0703 39.7705 19.0997C39.7478 19.129 39.719 19.1532 39.6861 19.1705C39.6533 19.1878 39.6171 19.1979 39.58 19.2001C39.212 19.3216 38.8275 19.3857 38.44 19.3901Z" fill="#6F6F6F"/>
<path d="M47.89 18.3198C47.0459 19.0173 45.985 19.3988 44.89 19.3988C43.795 19.3988 42.7342 19.0173 41.89 18.3198C41.1481 17.5708 40.7318 16.5591 40.7318 15.5048C40.7318 14.4505 41.1481 13.4388 41.89 12.6898C42.7358 11.9959 43.796 11.6167 44.89 11.6167C45.984 11.6167 47.0442 11.9959 47.89 12.6898C48.6149 13.4457 49.0196 14.4525 49.0196 15.4998C49.0196 16.5471 48.6149 17.5539 47.89 18.3098V18.3198ZM43.47 16.9998C43.8618 17.3547 44.3714 17.5512 44.9 17.5512C45.4286 17.5512 45.9383 17.3547 46.33 16.9998C46.6846 16.5921 46.8798 16.0701 46.8798 15.5298C46.8798 14.9895 46.6846 14.4675 46.33 14.0598C45.9383 13.7049 45.4286 13.5084 44.9 13.5084C44.3714 13.5084 43.8618 13.7049 43.47 14.0598C43.1155 14.4675 42.9202 14.9895 42.9202 15.5298C42.9202 16.0701 43.1155 16.5921 43.47 16.9998Z" fill="#6F6F6F"/>
<path d="M58.27 11.8702C58.46 11.8702 58.55 11.9702 58.55 12.1602V19.3302C58.5674 19.8141 58.4769 20.2958 58.2849 20.7404C58.0929 21.1849 57.8043 21.5811 57.44 21.9002C56.6314 22.5896 55.5916 22.947 54.53 22.9002C53.5711 22.9339 52.6251 22.6721 51.82 22.1502C51.4762 21.9244 51.1825 21.6304 50.9571 21.2863C50.7318 20.9423 50.5796 20.5555 50.51 20.1502C50.51 19.9502 50.51 19.8602 50.78 19.8602H52.46C52.5313 19.8626 52.6004 19.8856 52.659 19.9264C52.7175 19.9672 52.763 20.0241 52.79 20.0902C52.8989 20.3939 53.1161 20.6467 53.4 20.8002C53.7459 20.9786 54.1308 21.068 54.52 21.0602C54.7548 21.073 54.9898 21.039 55.2113 20.96C55.4328 20.881 55.6363 20.7587 55.81 20.6002C55.9686 20.4343 56.0921 20.2381 56.1729 20.0233C56.2536 19.8084 56.2901 19.5795 56.28 19.3502V18.7202C55.6785 19.1626 54.9464 19.3914 54.2 19.3702C53.6776 19.3892 53.1567 19.3024 52.6687 19.1151C52.1807 18.9278 51.7355 18.6438 51.36 18.2802C50.639 17.5343 50.236 16.5375 50.236 15.5002C50.236 14.4628 50.639 13.466 51.36 12.7202C51.7373 12.3598 52.183 12.0785 52.6708 11.893C53.1585 11.7076 53.6785 11.6216 54.2 11.6402C54.968 11.6199 55.7197 11.8634 56.33 12.3302V12.1702C56.3254 12.1319 56.3294 12.093 56.3417 12.0564C56.354 12.0198 56.3743 11.9864 56.4011 11.9587C56.4279 11.9309 56.4606 11.9095 56.4967 11.8959C56.5328 11.8823 56.5715 11.8769 56.61 11.8802L58.27 11.8702ZM54.39 17.5902C54.6476 17.5982 54.9038 17.5494 55.1406 17.4475C55.3773 17.3455 55.5888 17.1928 55.76 17.0002C56.0924 16.5708 56.2728 16.0432 56.2728 15.5002C56.2728 14.9572 56.0924 14.4295 55.76 14.0002C55.5894 13.8101 55.3792 13.6597 55.1442 13.5595C54.9093 13.4593 54.6553 13.4117 54.4 13.4202C54.1394 13.412 53.8801 13.4605 53.6401 13.5624C53.4001 13.6642 53.1851 13.817 53.01 14.0102C52.6417 14.4209 52.448 14.959 52.47 15.5102C52.4519 16.056 52.6413 16.5884 53 17.0002C53.1755 17.1928 53.3906 17.3452 53.6305 17.4471C53.8704 17.5489 54.1295 17.5977 54.39 17.5902Z" fill="#6F6F6F"/>
<path d="M67.18 18.3198C66.3342 19.0137 65.274 19.3929 64.18 19.3929C63.086 19.3929 62.0258 19.0137 61.18 18.3198C60.4545 17.5622 60.0495 16.5538 60.0495 15.5048C60.0495 14.4559 60.4545 13.4474 61.18 12.6898C62.0266 11.9977 63.0865 11.6196 64.18 11.6196C65.2735 11.6196 66.3334 11.9977 67.18 12.6898C67.9049 13.4457 68.3096 14.4525 68.3096 15.4998C68.3096 16.5471 67.9049 17.5539 67.18 18.3098V18.3198ZM62.75 16.9998C62.9417 17.1822 63.1677 17.3247 63.4149 17.4191C63.6621 17.5135 63.9255 17.5579 64.19 17.5498C64.4528 17.5566 64.7144 17.5115 64.9598 17.4172C65.2051 17.3228 65.4295 17.181 65.62 16.9998C65.9688 16.5894 66.1603 16.0684 66.1603 15.5298C66.1603 14.9912 65.9688 14.4702 65.62 14.0598C65.4295 13.8786 65.2051 13.7368 64.9598 13.6424C64.7144 13.5481 64.4528 13.503 64.19 13.5098C63.9255 13.5017 63.6621 13.5461 63.4149 13.6405C63.1677 13.7349 62.9417 13.8774 62.75 14.0598C62.4012 14.4702 62.2097 14.9912 62.2097 15.5298C62.2097 16.0684 62.4012 16.5894 62.75 16.9998Z" fill="#6F6F6F"/>
<path d="M71.92 10.1699C71.6557 10.4013 71.3163 10.5288 70.965 10.5288C70.6137 10.5288 70.2744 10.4013 70.01 10.1699C69.8902 10.0568 69.7947 9.92039 69.7294 9.76907C69.6642 9.61775 69.6305 9.45469 69.6305 9.28989C69.6305 9.1251 69.6642 8.96204 69.7294 8.81072C69.7947 8.6594 69.8902 8.523 70.01 8.40989C70.2771 8.1843 70.6154 8.06055 70.965 8.06055C71.3146 8.06055 71.6529 8.1843 71.92 8.40989C72.0399 8.523 72.1353 8.6594 72.2006 8.81072C72.2659 8.96204 72.2995 9.1251 72.2995 9.28989C72.2995 9.45469 72.2659 9.61775 72.2006 9.76907C72.1353 9.92039 72.0399 10.0568 71.92 10.1699ZM72.13 19.3899C71.5356 19.419 70.9483 19.2502 70.46 18.9099C70.2596 18.7568 70.0988 18.5581 69.991 18.3302C69.8831 18.1023 69.8313 17.8519 69.84 17.5999V12.1599C69.8351 12.1206 69.8393 12.0808 69.8522 12.0434C69.865 12.006 69.8862 11.972 69.9142 11.9441C69.9422 11.9161 69.9761 11.8949 70.0135 11.882C70.0509 11.8692 70.0908 11.865 70.13 11.8699H71.81C72 11.8699 72.09 11.9699 72.09 12.1599V16.8799C72.09 17.2599 72.26 17.4499 72.6 17.4499C72.7517 17.4553 72.9033 17.4385 73.05 17.3999C73.25 17.3999 73.36 17.4599 73.37 17.6399L73.52 18.8899C73.5272 18.9263 73.5265 18.9639 73.518 19.0001C73.5095 19.0362 73.4933 19.0701 73.4705 19.0995C73.4478 19.1289 73.419 19.153 73.3862 19.1703C73.3533 19.1877 73.3171 19.1977 73.28 19.1999C72.9088 19.3221 72.5208 19.3862 72.13 19.3899Z" fill="#6F6F6F"/>
<path d="M79.7 11.6298C80.2247 11.609 80.7483 11.6939 81.2396 11.8795C81.7309 12.065 82.1799 12.3473 82.56 12.7098C83.2671 13.4687 83.6603 14.4675 83.6603 15.5048C83.6603 16.5421 83.2671 17.5408 82.56 18.2998C82.1818 18.6654 81.7333 18.9505 81.2417 19.1379C80.7501 19.3252 80.2256 19.4109 79.7 19.3898C78.9511 19.4064 78.2173 19.1782 77.61 18.7398V22.3498C77.61 22.5398 77.51 22.6298 77.32 22.6298H75.64C75.6017 22.6369 75.5622 22.6346 75.5249 22.6231C75.4877 22.6116 75.4538 22.5911 75.4262 22.5636C75.3986 22.536 75.3782 22.5021 75.3667 22.4648C75.3551 22.4276 75.3528 22.3881 75.36 22.3498V14.1498C75.3718 14.0696 75.3646 13.9877 75.3391 13.9108C75.3137 13.8338 75.2705 13.7639 75.2132 13.7066C75.1559 13.6492 75.086 13.6061 75.009 13.5806C74.932 13.5551 74.8502 13.548 74.77 13.5598H74.44C74.22 13.5598 74.11 13.4798 74.11 13.3198V12.1398C74.1048 12.0667 74.1248 11.9942 74.1667 11.9341C74.2085 11.8741 74.2697 11.8302 74.34 11.8098C74.6859 11.684 75.052 11.623 75.42 11.6298C75.787 11.5973 76.1553 11.6751 76.4778 11.8533C76.8002 12.0314 77.0622 12.3018 77.23 12.6298C77.5521 12.3039 77.9373 12.0472 78.362 11.8753C78.7866 11.7033 79.2419 11.6198 79.7 11.6298ZM78.14 16.9998C78.3183 17.1861 78.5325 17.3344 78.7697 17.4357C79.0068 17.537 79.2621 17.5893 79.52 17.5893C79.7779 17.5893 80.0331 17.537 80.2703 17.4357C80.5075 17.3344 80.7217 17.1861 80.9 16.9998C81.2756 16.5809 81.4729 16.0319 81.45 15.4698C81.4762 14.9071 81.2784 14.357 80.9 13.9398C80.7217 13.7534 80.5075 13.6051 80.2703 13.5038C80.0331 13.4025 79.7779 13.3503 79.52 13.3503C79.2621 13.3503 79.0068 13.4025 78.7697 13.5038C78.5325 13.6051 78.3183 13.7534 78.14 13.9398C77.7761 14.3643 77.5867 14.9111 77.61 15.4698C77.5897 16.028 77.7787 16.5737 78.14 16.9998Z" fill="#6F6F6F"/>
<path d="M88.38 19.3901C87.4823 19.427 86.5922 19.2123 85.81 18.7701C85.4962 18.5811 85.229 18.3239 85.0282 18.0174C84.8273 17.711 84.6981 17.3633 84.65 17.0001C84.65 16.8001 84.72 16.7001 84.94 16.7001H86.41C86.48 16.7029 86.5478 16.7248 86.606 16.7637C86.6642 16.8025 86.7106 16.8566 86.74 16.9201C86.95 17.4601 87.5 17.7301 88.38 17.7301C88.687 17.7442 88.9927 17.6823 89.27 17.5501C89.3658 17.5069 89.448 17.4385 89.5078 17.3522C89.5677 17.2659 89.603 17.1649 89.61 17.0601C89.61 16.8001 89.45 16.6201 89.13 16.5001C88.7505 16.3738 88.3581 16.29 87.96 16.2501C87.4885 16.1968 87.0209 16.1133 86.56 16.0001C86.1119 15.8987 85.7043 15.6653 85.39 15.3301C85.2049 15.1023 85.0687 14.8388 84.9897 14.5561C84.9108 14.2734 84.8909 13.9774 84.9312 13.6867C84.9716 13.3959 85.0713 13.1166 85.2242 12.866C85.3771 12.6154 85.5799 12.399 85.82 12.2301C86.5408 11.771 87.3865 11.5473 88.24 11.5901C89.0664 11.5622 89.884 11.7666 90.6 12.1801C90.8886 12.3436 91.137 12.5693 91.3273 12.8409C91.5176 13.1125 91.6449 13.4231 91.7 13.7501C91.7 13.9501 91.61 14.0501 91.43 14.0501H89.95C89.8877 14.0538 89.8257 14.0386 89.7722 14.0065C89.7187 13.9744 89.6761 13.9269 89.65 13.8701C89.5511 13.6333 89.365 13.4435 89.13 13.3401C88.865 13.2015 88.569 13.1326 88.27 13.1401C87.9769 13.1242 87.6845 13.1827 87.42 13.3101C87.3268 13.3461 87.2466 13.4091 87.1895 13.4911C87.1325 13.5731 87.1013 13.6703 87.1 13.7701C87.1064 13.9069 87.1565 14.038 87.2429 14.1442C87.3293 14.2504 87.4474 14.3261 87.58 14.3601C87.9641 14.5049 88.3633 14.6055 88.77 14.6601C89.2377 14.7217 89.7017 14.8085 90.16 14.9201C90.6082 15.0216 91.0157 15.2549 91.33 15.5901C91.4982 15.7748 91.628 15.9909 91.7121 16.2261C91.7962 16.4612 91.8329 16.7107 91.82 16.9601C91.8287 17.3058 91.7475 17.6478 91.5845 17.9528C91.4215 18.2578 91.1822 18.5152 90.89 18.7001C90.1429 19.1798 89.2674 19.4205 88.38 19.3901Z" fill="#6F6F6F"/>
<path d="M102.39 18.8901C102.396 18.9256 102.394 18.9619 102.386 18.9968C102.377 19.0318 102.362 19.0646 102.34 19.0935C102.319 19.1224 102.292 19.1467 102.261 19.165C102.23 19.1833 102.196 19.1952 102.16 19.2001C101.795 19.3193 101.414 19.3834 101.03 19.3901C100.65 19.4295 100.266 19.3701 99.9158 19.2177C99.5654 19.0652 99.2603 18.825 99.03 18.5201C98.3236 19.1274 97.4102 19.439 96.48 19.3901C96.048 19.41 95.6167 19.3393 95.2137 19.1826C94.8107 19.0259 94.445 18.7866 94.14 18.4801C93.8371 18.159 93.6021 17.78 93.4492 17.3659C93.2963 16.9518 93.2285 16.511 93.25 16.0701V12.1601C93.25 11.9701 93.34 11.8701 93.53 11.8701H95.21C95.4 11.8701 95.49 11.9701 95.49 12.1601V15.7701C95.4717 16.2199 95.6255 16.6597 95.92 17.0001C96.067 17.1561 96.2457 17.2787 96.444 17.3598C96.6424 17.4408 96.8558 17.4785 97.07 17.4701C97.2891 17.4797 97.508 17.4458 97.714 17.3702C97.92 17.2947 98.1089 17.1791 98.27 17.0301C98.4224 16.8731 98.5409 16.6865 98.6183 16.4818C98.6957 16.2771 98.7303 16.0587 98.72 15.8401V12.1601C98.72 11.9701 98.81 11.8701 99 11.8701H100.7C100.89 11.8701 100.98 11.9701 100.98 12.1601V16.8701C100.98 17.2601 101.15 17.4501 101.48 17.4501C101.635 17.4561 101.79 17.4393 101.94 17.4001C101.978 17.3895 102.017 17.3876 102.056 17.3946C102.095 17.4015 102.131 17.4171 102.163 17.4402C102.195 17.4633 102.221 17.4933 102.239 17.5279C102.258 17.5625 102.268 17.6009 102.27 17.6401L102.39 18.8901Z" fill="#6F6F6F"/>
<path d="M118.28 18.8899C118.289 18.9257 118.29 18.963 118.283 18.9992C118.275 19.0354 118.26 19.0695 118.238 19.0992C118.216 19.1288 118.188 19.1532 118.155 19.1706C118.123 19.188 118.087 19.198 118.05 19.1999C117.678 19.3208 117.291 19.3848 116.9 19.3899C116.305 19.4206 115.718 19.2516 115.23 18.9099C115.019 18.7635 114.848 18.5673 114.731 18.3388C114.614 18.1103 114.555 17.8565 114.56 17.5999V15.2499C114.581 14.8015 114.431 14.3618 114.14 14.0199C114 13.8636 113.826 13.7404 113.633 13.6591C113.439 13.5778 113.23 13.5405 113.02 13.5499C112.831 13.5427 112.643 13.5786 112.469 13.6548C112.296 13.7311 112.142 13.8456 112.02 13.9899C111.756 14.325 111.621 14.7437 111.64 15.1699V18.8599C111.64 19.0499 111.55 19.1499 111.36 19.1499H109.67C109.631 19.1547 109.591 19.1506 109.553 19.1377C109.516 19.1249 109.482 19.1037 109.454 19.0757C109.426 19.0477 109.405 19.0138 109.392 18.9764C109.379 18.939 109.375 18.8991 109.38 18.8599V15.2499C109.402 14.8064 109.263 14.3698 108.99 14.0199C108.868 13.8729 108.715 13.7546 108.542 13.6734C108.37 13.5921 108.181 13.55 107.99 13.5499C107.786 13.5416 107.583 13.5766 107.393 13.6524C107.203 13.7282 107.032 13.8432 106.89 13.9899C106.604 14.3143 106.457 14.738 106.48 15.1699V18.8599C106.485 18.8991 106.481 18.939 106.468 18.9764C106.455 19.0138 106.434 19.0477 106.406 19.0757C106.378 19.1037 106.344 19.1249 106.306 19.1377C106.269 19.1506 106.229 19.1547 106.19 19.1499H104.56C104.37 19.1499 104.28 19.0499 104.28 18.8599V14.1499C104.292 14.0697 104.285 13.9878 104.259 13.9109C104.234 13.8339 104.191 13.764 104.133 13.7067C104.076 13.6494 104.006 13.6062 103.929 13.5807C103.852 13.5553 103.77 13.5481 103.69 13.5599H103.36C103.14 13.5599 103.03 13.4799 103.03 13.3199V12.1399C103.025 12.0669 103.045 11.9943 103.087 11.9342C103.129 11.8742 103.19 11.8303 103.26 11.8099C103.606 11.6841 103.972 11.6231 104.34 11.6299C104.693 11.5998 105.048 11.6702 105.363 11.833C105.678 11.9958 105.94 12.2443 106.12 12.5499C106.457 12.2301 106.857 11.9834 107.294 11.8251C107.731 11.6668 108.196 11.6003 108.66 11.6299C109.111 11.6079 109.56 11.6924 109.972 11.8766C110.383 12.0607 110.746 12.3394 111.03 12.6899C111.361 12.3302 111.768 12.0485 112.221 11.8652C112.674 11.6819 113.162 11.6015 113.65 11.6299C114.086 11.6095 114.522 11.6798 114.93 11.8364C115.338 11.993 115.709 12.2326 116.02 12.5399C116.324 12.8604 116.559 13.2392 116.712 13.6535C116.865 14.0678 116.933 14.5088 116.91 14.9499V16.8799C116.91 17.2599 117.08 17.4499 117.4 17.4499C117.555 17.4571 117.71 17.4402 117.86 17.3999C118.067 17.3999 118.177 17.4799 118.19 17.6399L118.28 18.8899Z" fill="#6F6F6F"/>
<path d="M1.01999 10.5698C1.75775 7.60445 3.46641 4.97119 5.87389 3.08929C8.28137 1.2074 11.2493 0.185059 14.305 0.185059C17.3607 0.185059 20.3286 1.2074 22.7361 3.08929C25.1436 4.97119 26.8522 7.60445 27.59 10.5698H26.39C24.3657 10.54 22.3829 11.145 20.72 12.2998C20.624 12.3693 20.5238 12.4327 20.42 12.4898H20.28C20.1761 12.4327 20.076 12.3693 19.98 12.2998C18.3024 11.1717 16.3266 10.5692 14.305 10.5692C12.2834 10.5692 10.3076 11.1717 8.62999 12.2998C8.53402 12.3693 8.43383 12.4327 8.32999 12.4898H8.18999C8.08615 12.4327 7.98596 12.3693 7.88999 12.2998C6.22712 11.145 4.2443 10.54 2.21999 10.5698H1.01999ZM24.23 16.8398C24.846 16.36 25.6095 16.1091 26.39 16.1298H28V12.9198H26.39C25.0152 12.9031 23.6719 13.3311 22.56 14.1398C21.9343 14.6011 21.1773 14.8499 20.4 14.8499C19.6226 14.8499 18.8657 14.6011 18.24 14.1398C17.0999 13.3461 15.7441 12.9207 14.355 12.9207C12.9659 12.9207 11.6101 13.3461 10.47 14.1398C9.84429 14.6011 9.08735 14.8499 8.30999 14.8499C7.53263 14.8499 6.77568 14.6011 6.14999 14.1398C5.02438 13.3207 3.66178 12.8923 2.26999 12.9198H0.609985V16.1298H2.21999C3.00049 16.1091 3.76397 16.36 4.37999 16.8398C5.51799 17.6339 6.87228 18.0597 8.25999 18.0597C9.64769 18.0597 11.002 17.6339 12.14 16.8398C12.7568 16.3615 13.5197 16.1107 14.3 16.1298C15.0807 16.1074 15.8448 16.3585 16.46 16.8398C17.6001 17.6334 18.9559 18.0588 20.345 18.0588C21.7341 18.0588 23.0899 17.6334 24.23 16.8398ZM24.23 22.5798C24.846 22.1 25.6095 21.8491 26.39 21.8698H28V18.6598H26.39C25.0152 18.6431 23.6719 19.0711 22.56 19.8798C21.9343 20.3411 21.1773 20.5899 20.4 20.5899C19.6226 20.5899 18.8657 20.3411 18.24 19.8798C17.0999 19.0861 15.7441 18.6607 14.355 18.6607C12.9659 18.6607 11.6101 19.0861 10.47 19.8798C9.84429 20.3411 9.08735 20.5899 8.30999 20.5899C7.53263 20.5899 6.77568 20.3411 6.14999 19.8798C5.02438 19.0607 3.66178 18.6323 2.26999 18.6598H0.609985V21.8698H2.21999C3.00049 21.8491 3.76397 22.1 4.37999 22.5798C5.51799 23.3739 6.87228 23.7997 8.25999 23.7997C9.64769 23.7997 11.002 23.3739 12.14 22.5798C12.7568 22.1015 13.5197 21.8507 14.3 21.8698C15.0807 21.8474 15.8448 22.0985 16.46 22.5798C17.6001 23.3734 18.9559 23.7989 20.345 23.7989C21.7341 23.7989 23.0899 23.3734 24.23 22.5798Z" fill="#6F6F6F"/>
</svg>
