<svg width="127" height="34" viewBox="0 0 127 34" fill="none" xmlns="http://www.w3.org/2000/svg">
<path d="M20.5699 8.38977H22.5699V22.3098H28.5699V24.3098H20.5699V8.38977ZM34.7999 8.38977C35.9866 8.38977 37.1467 8.74166 38.1334 9.40095C39.1201 10.0602 39.8891 10.9973 40.3432 12.0937C40.7974 13.19 40.9162 14.3964 40.6847 15.5603C40.4531 16.7242 39.8817 17.7933 39.0426 18.6324C38.2035 19.4715 37.1344 20.043 35.9705 20.2745C34.8066 20.506 33.6002 20.3872 32.5038 19.933C31.4075 19.4789 30.4704 18.7099 29.8111 17.7232C29.1518 16.7365 28.7999 15.5765 28.7999 14.3898C28.7999 13.6018 28.9551 12.8216 29.2567 12.0937C29.5582 11.3657 30.0002 10.7043 30.5573 10.1471C31.1145 9.58997 31.7759 9.14802 32.5038 8.84649C33.2318 8.54496 34.012 8.38977 34.7999 8.38977ZM34.7999 18.3898C35.5911 18.3898 36.3644 18.1552 37.0222 17.7156C37.68 17.2761 38.1927 16.6514 38.4955 15.9205C38.7982 15.1896 38.8774 14.3853 38.7231 13.6094C38.5687 12.8335 38.1878 12.1208 37.6284 11.5613C37.069 11.0019 36.3562 10.621 35.5803 10.4666C34.8044 10.3123 34.0001 10.3915 33.2692 10.6942C32.5383 10.997 31.9136 11.5097 31.4741 12.1675C31.0345 12.8253 30.7999 13.5986 30.7999 14.3898C30.8052 15.4472 31.229 16.4594 31.9786 17.2053C32.7281 17.9511 33.7425 18.3698 34.7999 18.3698V18.3898ZM30.7999 22.3298H38.7999V24.3298H30.7999V22.3298ZM56.3999 24.3298H54.3999V22.8998C53.1101 23.8026 51.5743 24.2878 50 24.2898C48.6575 24.2988 47.3343 23.9697 46.1523 23.333C44.9704 22.6963 43.9677 21.7724 43.2366 20.6464C42.5055 19.5204 42.0696 18.2285 41.9689 16.8897C41.8683 15.551 42.1062 14.2084 42.6607 12.9857C43.2152 11.7631 44.0684 10.6996 45.1419 9.89334C46.2153 9.08706 47.4744 8.5639 48.8032 8.37205C50.1319 8.1802 51.4876 8.32583 52.7453 8.79553C54.003 9.26523 55.1222 10.0439 56 11.0598L54.5299 12.3698C53.8624 11.6234 53.0186 11.056 52.0756 10.7192C51.1326 10.3825 50.1203 10.2871 49.1309 10.4418C48.1416 10.5965 47.2067 10.9963 46.4115 11.6049C45.6163 12.2134 44.986 13.0113 44.5781 13.9258C44.1702 14.8404 43.9977 15.8424 44.0763 16.8407C44.1549 17.8389 44.4821 18.8017 45.028 19.6411C45.574 20.4805 46.3214 21.1699 47.202 21.6466C48.0827 22.1232 49.0686 22.3718 50.07 22.3698C50.901 22.3715 51.7226 22.1937 52.4785 21.8485C53.2345 21.5033 53.907 20.9989 54.4499 20.3698H49.0499V18.3698H56.4199L56.3999 24.3298ZM63.7599 8.42977C64.9466 8.42977 66.1067 8.78166 67.0934 9.44095C68.0801 10.1002 68.8491 11.0373 69.3032 12.1337C69.7574 13.23 69.8762 14.4364 69.6447 15.6003C69.4131 16.7642 68.8417 17.8333 68.0026 18.6724C67.1635 19.5115 66.0944 20.083 64.9305 20.3145C63.7666 20.546 62.5602 20.4272 61.4638 19.973C60.3675 19.5189 59.4304 18.7499 58.7711 17.7632C58.1118 16.7765 57.7599 15.6165 57.7599 14.4298C57.7547 13.6368 57.9066 12.8506 58.207 12.1167C58.5074 11.3829 58.9503 10.7158 59.5101 10.1541C60.0699 9.59247 60.7355 9.14735 61.4684 8.84451C62.2013 8.54167 62.987 8.38711 63.7799 8.38977L63.7599 8.42977ZM63.7599 18.4298C64.5511 18.4298 65.3244 18.1952 65.9822 17.7556C66.64 17.3161 67.1527 16.6914 67.4555 15.9605C67.7582 15.2296 67.8374 14.4253 67.6831 13.6494C67.5287 12.8735 67.1478 12.1608 66.5884 11.6013C66.029 11.0419 65.3162 10.661 64.5403 10.5066C63.7644 10.3523 62.9601 10.4315 62.2292 10.7342C61.4983 11.037 60.8736 11.5497 60.4341 12.2075C59.9945 12.8653 59.7599 13.6386 59.7599 14.4298C59.7757 15.4837 60.2069 16.4887 60.9596 17.2265C61.7124 17.9643 62.7259 18.3752 63.7799 18.3698L63.7599 18.4298ZM59.7599 22.3698H67.7599V24.3698H59.7599V22.3698ZM71.8899 8.38977H73.8899V24.2898H71.8899V8.38977ZM76.6599 8.38977H78.6599C78.763 8.37884 78.8669 8.37884 78.9699 8.38977C79.8076 8.2989 80.6549 8.38545 81.4569 8.6438C82.2588 8.90214 82.9973 9.32648 83.6244 9.88919C84.2515 10.4519 84.753 11.1404 85.0963 11.9098C85.4396 12.6792 85.6171 13.5122 85.6171 14.3548C85.6171 15.1973 85.4396 16.0304 85.0963 16.7998C84.753 17.5692 84.2515 18.2576 83.6244 18.8203C82.9973 19.3831 82.2588 19.8074 81.4569 20.0657C80.6549 20.3241 79.8076 20.4106 78.9699 20.3198H78.6599V24.3198H76.6599V8.38977ZM78.6599 10.3898V18.2998H78.9699C79.5348 18.375 80.1093 18.3286 80.6548 18.1638C81.2003 17.999 81.7044 17.7195 82.1331 17.3441C82.5618 16.9687 82.9054 16.5059 83.1408 15.9869C83.3762 15.4679 83.4979 14.9046 83.4979 14.3348C83.4979 13.7649 83.3762 13.2016 83.1408 12.6826C82.9054 12.1636 82.5618 11.7009 82.1331 11.3255C81.7044 10.95 81.2003 10.6705 80.6548 10.5057C80.1093 10.3409 79.5348 10.2945 78.9699 10.3698C78.861 10.3811 78.7537 10.4046 78.6499 10.4398L78.6599 10.3898ZM93.0699 9.53977L91.59 10.7098C91.3346 10.443 91.0084 10.2546 90.6497 10.1668C90.291 10.079 89.9147 10.0954 89.565 10.214C89.2153 10.3327 88.9067 10.5487 88.6755 10.8367C88.4444 11.1247 88.3002 11.4727 88.2599 11.8398V11.9998C88.2599 12.8798 88.8699 13.4698 90.06 13.5498C94.64 13.8298 96.7399 15.9798 96.7399 18.8198V18.9998C96.6217 20.1238 96.1831 21.1902 95.4763 22.0722C94.7695 22.9541 93.8242 23.6145 92.7529 23.9748C91.6816 24.335 90.5294 24.38 89.4333 24.1043C88.3372 23.8287 87.3433 23.244 86.5699 22.4198L88.0999 21.2398C88.4561 21.6214 88.891 21.9211 89.3745 22.1179C89.858 22.3148 90.3785 22.4041 90.8999 22.3798C91.8631 22.4305 92.8086 22.1073 93.5391 21.4774C94.2695 20.8476 94.7284 19.9599 94.8199 18.9998V18.8598C94.8199 16.1898 92.1999 15.6998 89.9299 15.4798C87.8299 15.2798 86.3199 13.9698 86.3199 12.0798V11.9998C86.394 11.0158 86.843 10.0978 87.5744 9.43533C88.3057 8.77286 89.2635 8.41648 90.25 8.43977C90.7727 8.42433 91.2929 8.5187 91.7769 8.71679C92.2609 8.91487 92.698 9.21227 93.06 9.58977L93.0699 9.53977ZM104.57 22.2598C107.06 22.2598 109.03 19.5698 109.03 16.2598V8.25977H111.03V16.2598C111.03 20.6598 108.15 24.2098 104.61 24.2098C101.07 24.2098 98.1899 20.6598 98.1899 16.2598V8.25977H100.19V16.2598C100.11 19.6198 102.08 22.3098 104.56 22.3098L104.57 22.2598ZM126.38 24.2598H124.38V14.3598L119.77 20.3598L115.16 14.3598V24.2898H113.16V8.38977L119.76 17.0798L126.36 8.38977L126.38 24.2598Z" fill="#6F6F6F"/>
<path d="M10.97 6.00006C10.97 4.55728 10.3968 3.17359 9.37663 2.1534C8.35643 1.1332 6.97274 0.560059 5.52997 0.560059C4.08719 0.560059 2.7035 1.1332 1.68331 2.1534C0.663108 3.17359 0.0899658 4.55728 0.0899658 6.00006V22.4501L4.56997 25.6601V33.4801H6.48997V25.6601L10.97 22.4501V6.00006ZM9.04996 15.2001L6.48997 17.7601V15.3601L9.04996 12.8001V15.2001ZM2.04996 12.8001L4.60997 15.3601V17.7601L2.04996 15.2001V12.8001ZM9.04996 10.0801L5.52997 13.6001L2.00997 10.0001V7.60006L5.52997 11.1201L9.04996 7.60006V10.0801ZM5.52997 2.48006C6.30412 2.48348 7.0558 2.74059 7.66988 3.21199C8.28397 3.68339 8.72659 4.34309 8.92997 5.09006L5.52997 8.48006L2.12997 5.09006C2.3259 4.33566 2.76534 3.66701 3.38009 3.18787C3.99485 2.70872 4.75056 2.44585 5.52997 2.44006V2.48006ZM2.00997 21.4801V17.8801L4.56997 20.4401V23.3001L2.00997 21.4801ZM6.48997 23.3101V20.4401L9.04996 17.8801V21.4701L6.48997 23.3101Z" fill="#6F6F6F"/>
</svg>
