<svg width="138" height="32" viewBox="0 0 138 32" fill="none" xmlns="http://www.w3.org/2000/svg">
<path d="M26.4261 23.6867L5.24874 18.5387C3.10269 18.017 2.74698 15.3576 4.64494 13.9741L20.6042 2.32799C20.9294 2.04755 21.3168 1.84871 21.7342 1.74797C22.1516 1.64723 22.587 1.6475 23.0043 1.74874C23.4215 1.84999 23.8087 2.0493 24.1335 2.33013C24.4583 2.61096 24.7115 2.96521 24.8719 3.36348L30.0869 20.1578C30.706 22.1512 28.5722 24.2084 26.4261 23.6867Z" fill="#6F6F6F"/>
<path d="M17.3 29.8139L6.73098 9.14492C6.48938 8.67208 6.38307 8.14169 6.42376 7.61226C6.46445 7.08283 6.65057 6.57492 6.96158 6.14455C7.2726 5.71418 7.69643 5.37806 8.18634 5.17326C8.67625 4.96846 9.2132 4.90294 9.73798 4.98392L29.325 8.00692C29.7759 8.07653 30.2039 8.25218 30.5738 8.51943C30.9436 8.78668 31.2447 9.1379 31.4524 9.54421C31.66 9.95053 31.7683 10.4003 31.7682 10.8566C31.7681 11.3129 31.6597 11.7627 31.452 12.1689L22.429 29.8149C22.1867 30.2864 21.8191 30.682 21.3666 30.9581C20.9141 31.2343 20.3943 31.3803 19.8642 31.3802C19.3341 31.3801 18.8143 31.2339 18.3619 30.9575C17.9095 30.6812 17.5421 30.2855 17.3 29.8139Z" fill="#6F6F6F"/>
<path d="M78.209 10.334C78.209 9.97109 78.3166 9.61632 78.5182 9.31455C78.7199 9.01279 79.0065 8.77759 79.3418 8.6387C79.6771 8.49982 80.046 8.46348 80.402 8.53428C80.7579 8.60509 81.0849 8.77986 81.3415 9.03648C81.5982 9.29311 81.7729 9.62008 81.8437 9.97603C81.9145 10.332 81.8782 10.7009 81.7393 11.0362C81.6004 11.3716 81.3652 11.6581 81.0635 11.8598C80.7617 12.0614 80.4069 12.169 80.044 12.169C79.5588 12.1641 79.095 11.9692 78.7519 11.6261C78.4089 11.283 78.2139 10.8192 78.209 10.334ZM78.515 13.066H81.574V23.26H78.515V13.066Z" fill="#6F6F6F"/>
<path d="M94.784 18.1631C94.8196 18.8369 94.7216 19.5111 94.4956 20.1469C94.2697 20.7827 93.9203 21.3675 93.4675 21.8678C93.0147 22.368 92.4675 22.7739 91.8573 23.0619C91.2471 23.3499 90.586 23.5145 89.912 23.5461C89.3451 23.577 88.7784 23.4813 88.253 23.2662C87.7275 23.051 87.2565 22.7217 86.874 22.3021V27.3381H83.816V13.0661H86.874V14.0241C87.2566 13.6047 87.7277 13.2755 88.2531 13.0605C88.7785 12.8456 89.3452 12.7501 89.912 12.7811C90.586 12.8126 91.2471 12.977 91.8572 13.265C92.4674 13.5529 93.0146 13.9586 93.4674 14.4588C93.9202 14.959 94.2696 15.5438 94.4956 16.1795C94.7215 16.8152 94.8196 17.4893 94.784 18.1631ZM91.726 18.1631C91.714 17.6858 91.5615 17.2227 91.2876 16.8317C91.0137 16.4406 90.6305 16.1391 90.1861 15.9647C89.7416 15.7904 89.2556 15.751 88.7889 15.8515C88.3222 15.952 87.8954 16.1879 87.5621 16.5297C87.2288 16.8716 87.0037 17.3041 86.9151 17.7732C86.8264 18.2423 86.878 18.7272 87.0635 19.1671C87.249 19.607 87.5601 19.9825 87.958 20.2464C88.3558 20.5104 88.8226 20.6511 89.3 20.6511C89.6279 20.6659 89.9551 20.6111 90.2603 20.4905C90.5655 20.3698 90.8417 20.186 91.0708 19.951C91.3 19.716 91.4768 19.4353 91.5897 19.1271C91.7026 18.819 91.7491 18.4905 91.726 18.1631Z" fill="#6F6F6F"/>
<path d="M104.223 20.2001C104.223 22.5451 102.184 23.5441 99.982 23.5441C99.0924 23.6246 98.1992 23.4363 97.4178 23.0037C96.6364 22.571 96.0028 21.9138 95.599 21.1171L98.249 19.6091C98.3567 19.9774 98.5876 20.2975 98.9031 20.5159C99.2185 20.7343 99.5994 20.8378 99.982 20.8091C100.716 20.8091 101.082 20.5841 101.082 20.1771C101.082 19.0551 96.067 19.6471 96.067 16.1191C96.067 13.8971 97.942 12.7761 100.067 12.7761C100.864 12.7511 101.653 12.9402 102.352 13.3238C103.051 13.7074 103.635 14.2714 104.042 14.9571L101.433 16.3641C101.319 16.0965 101.128 15.8685 100.886 15.7084C100.643 15.5484 100.358 15.4634 100.067 15.4641C99.537 15.4641 99.211 15.6641 99.211 16.0351C99.208 17.2051 104.223 16.4301 104.223 20.2001Z" fill="#6F6F6F"/>
<path d="M115.4 13.0659V23.2599H112.342V22.2999C111.989 22.7228 111.54 23.056 111.033 23.2722C110.527 23.4885 109.976 23.5816 109.426 23.5439C107.367 23.5439 105.614 22.0759 105.614 19.3229V13.0659H108.672V18.8769C108.646 19.1199 108.674 19.3655 108.753 19.5968C108.832 19.828 108.96 20.0393 109.129 20.2159C109.298 20.3924 109.503 20.5301 109.73 20.6192C109.958 20.7083 110.202 20.7468 110.446 20.7319C111.567 20.7319 112.346 20.0799 112.346 18.6319V13.0659H115.4Z" fill="#6F6F6F"/>
<path d="M132.928 16.9998V23.2598H129.87V17.2658C129.87 16.2468 129.38 15.5938 128.402 15.5938C127.382 15.5938 126.812 16.3078 126.812 17.5108V23.2598H123.753V17.2658C123.753 16.2468 123.264 15.5938 122.285 15.5938C121.266 15.5938 120.695 16.3078 120.695 17.5108V23.2598H117.637V13.0658H120.7V13.9998C121.017 13.5839 121.433 13.254 121.91 13.0404C122.387 12.8268 122.911 12.7361 123.432 12.7768C123.955 12.7512 124.477 12.8616 124.945 13.0973C125.413 13.333 125.812 13.686 126.103 14.1218C126.442 13.6658 126.891 13.3033 127.408 13.068C127.925 12.8328 128.494 12.7326 129.06 12.7768C131.4 12.7808 132.928 14.4518 132.928 16.9998Z" fill="#6F6F6F"/>
<path d="M135.519 13.0029C136.773 13.0029 137.789 11.9866 137.789 10.7329C137.789 9.4792 136.773 8.46289 135.519 8.46289C134.265 8.46289 133.249 9.4792 133.249 10.7329C133.249 11.9866 134.265 13.0029 135.519 13.0029Z" fill="#6F6F6F"/>
<path d="M36.457 8.37695H39.516V23.26H36.457V8.37695ZM41.248 18.163C41.2447 17.0942 41.5585 16.0485 42.1498 15.1583C42.7411 14.268 43.5833 13.5732 44.5697 13.1619C45.5562 12.7506 46.6424 12.6412 47.6911 12.8476C48.7397 13.0541 49.7035 13.567 50.4604 14.3216C51.2173 15.0761 51.7333 16.0382 51.943 17.0862C52.1527 18.1342 52.0468 19.2208 51.6386 20.2085C51.2304 21.1962 50.5383 22.0406 49.6499 22.6347C48.7615 23.2288 47.7168 23.5459 46.648 23.546C45.9382 23.5535 45.234 23.4196 44.5765 23.152C43.9191 22.8844 43.3215 22.4884 42.8188 21.9873C42.316 21.4861 41.9182 20.8898 41.6485 20.2332C41.3788 19.5766 41.2427 18.8728 41.248 18.163ZM48.996 18.163C48.984 17.7019 48.8364 17.2547 48.5715 16.8772C48.3067 16.4997 47.9364 16.2086 47.507 16.0404C47.0775 15.8723 46.6081 15.8344 46.1573 15.9317C45.7065 16.0289 45.2944 16.257 44.9725 16.5872C44.6506 16.9175 44.4333 17.3353 44.3476 17.7884C44.262 18.2416 44.3118 18.7099 44.491 19.1349C44.6701 19.5598 44.9706 19.9225 45.3548 20.1776C45.739 20.4327 46.1899 20.5688 46.651 20.569C46.9668 20.578 47.2811 20.5214 47.5739 20.4029C47.8668 20.2845 48.1319 20.1066 48.3526 19.8805C48.5733 19.6545 48.7448 19.3852 48.8562 19.0896C48.9676 18.7939 49.0166 18.4784 49 18.163H48.996ZM64.245 13.063V22.748C64.245 26.173 61.574 27.62 58.863 27.62C57.9088 27.692 56.9531 27.4999 56.1007 27.0647C55.2484 26.6296 54.5323 25.9681 54.031 25.153L56.64 23.644C56.8506 24.0694 57.1861 24.4204 57.6016 24.6501C58.0171 24.8797 58.4927 24.977 58.965 24.929C59.2665 24.9701 59.5733 24.9431 59.8629 24.8498C60.1525 24.7565 60.4174 24.5995 60.6382 24.3901C60.8589 24.1808 61.0298 23.9246 61.1383 23.6403C61.2468 23.3561 61.2901 23.0511 61.265 22.748V21.81C60.9068 22.248 60.4509 22.596 59.934 22.8261C59.417 23.0562 58.8533 23.162 58.288 23.135C56.9425 23.0931 55.666 22.5292 54.729 21.5626C53.792 20.596 53.268 19.3027 53.268 17.9565C53.268 16.6102 53.792 15.3169 54.729 14.3503C55.666 13.3837 56.9425 12.8198 58.288 12.778C58.8533 12.7509 59.417 12.8567 59.934 13.0868C60.4509 13.3169 60.9068 13.6649 61.265 14.103V13.063H64.245ZM61.269 17.956C61.2892 17.4636 61.1616 16.9765 60.9027 16.5572C60.6438 16.1379 60.2654 15.8056 59.8161 15.6031C59.3669 15.4006 58.8673 15.3372 58.3817 15.4208C57.8961 15.5045 57.4466 15.7315 57.091 16.0727C56.7354 16.4139 56.49 16.8536 56.3864 17.3353C56.2827 17.8171 56.3255 18.3188 56.5093 18.7761C56.693 19.2333 57.0094 19.6251 57.4176 19.9011C57.8258 20.1771 58.3073 20.3247 58.8 20.325C59.1213 20.3475 59.4438 20.3026 59.7467 20.1931C60.0496 20.0836 60.3262 19.9119 60.5588 19.689C60.7913 19.4662 60.9747 19.1971 61.097 18.8992C61.2193 18.6012 61.2779 18.2809 61.269 17.959V17.956ZM65.977 18.156C65.9737 17.0872 66.2875 16.0415 66.8788 15.1513C67.4701 14.261 68.3123 13.5662 69.2987 13.1549C70.2852 12.7436 71.3714 12.6342 72.4201 12.8406C73.4687 13.0471 74.4324 13.56 75.1894 14.3146C75.9463 15.0691 76.4623 16.0312 76.672 17.0792C76.8817 18.1272 76.7758 19.2138 76.3676 20.2015C75.9594 21.1892 75.2673 22.0336 74.3789 22.6277C73.4905 23.2218 72.4458 23.5389 71.377 23.539C70.6678 23.5465 69.9642 23.4128 69.3072 23.1456C68.6502 22.8785 68.0529 22.4831 67.5503 21.9827C67.0476 21.4823 66.6497 20.8869 66.3796 20.231C66.1094 19.5752 65.9726 18.8722 65.977 18.163V18.156ZM73.725 18.156C73.7132 17.6947 73.5656 17.2471 73.3008 16.8692C73.0359 16.4914 72.6654 16.2001 72.2358 16.0317C71.8061 15.8633 71.3364 15.8254 70.8853 15.9227C70.4342 16.0199 70.0218 16.2481 69.6998 16.5785C69.3777 16.909 69.1602 17.3271 69.0746 17.7805C68.9889 18.2339 69.0389 18.7026 69.2182 19.1277C69.3976 19.5529 69.6983 19.9157 70.0828 20.1709C70.4674 20.426 70.9186 20.562 71.38 20.562C71.6949 20.5703 72.008 20.5136 72.2999 20.3953C72.5918 20.277 72.8561 20.0996 73.0763 19.8744C73.2964 19.6492 73.4677 19.3809 73.5793 19.0864C73.691 18.7919 73.7406 18.4775 73.725 18.163V18.156Z" fill="#6F6F6F"/>
</svg>
