<svg width="120" height="28" viewBox="0 0 120 28" fill="none" xmlns="http://www.w3.org/2000/svg">
<path d="M34.77 8.07018H37.77V20.2002H34.77V8.07018ZM38.96 15.6202C38.96 12.6202 40.8 10.8302 43.64 10.8302C46.48 10.8302 48.32 12.6202 48.32 15.6202C48.32 18.6202 46.52 20.4202 43.64 20.4202C40.76 20.4202 38.96 18.6702 38.96 15.6202ZM45.31 15.6202C45.31 13.9702 44.66 13.0002 43.64 13.0002C42.62 13.0002 41.98 14.0002 41.98 15.6202C41.98 17.2402 42.61 18.2202 43.64 18.2202C44.67 18.2202 45.31 17.3002 45.31 15.6302V15.6202ZM49.45 20.7902H52.33C52.4671 21.0947 52.6988 21.3468 52.9907 21.509C53.2826 21.6711 53.6191 21.7347 53.95 21.6902C55.09 21.6902 55.69 21.0702 55.69 20.1702V18.4902H55.63C55.391 19.0051 55.0031 19.4365 54.5165 19.7289C54.0299 20.0212 53.4669 20.161 52.9 20.1302C50.71 20.1302 49.26 18.4602 49.26 15.5902C49.26 12.7202 50.64 10.9102 52.94 10.9102C53.5246 10.8873 54.1023 11.0436 54.5955 11.3581C55.0888 11.6727 55.4742 12.1305 55.7 12.6702V11.0002H58.7V20.1002C58.7 22.2902 56.77 23.6502 53.92 23.6502C51.27 23.6502 49.62 22.4602 49.45 20.8002V20.7902ZM55.7 15.6102C55.7 14.1502 55.03 13.2302 53.97 13.2302C52.91 13.2302 52.26 14.1402 52.26 15.6102C52.26 17.0802 52.9 17.9102 53.97 17.9102C55.04 17.9102 55.7 17.1002 55.7 15.6202V15.6102ZM59.83 15.6102C59.83 12.6102 61.67 10.8202 64.51 10.8202C67.35 10.8202 69.2 12.6102 69.2 15.6102C69.2 18.6102 67.4 20.4102 64.51 20.4102C61.62 20.4102 59.83 18.6702 59.83 15.6202V15.6102ZM66.18 15.6102C66.18 13.9602 65.53 12.9902 64.51 12.9902C63.49 12.9902 62.9 14.0002 62.9 15.6302C62.9 17.2602 63.53 18.2302 64.55 18.2302C65.57 18.2302 66.18 17.3002 66.18 15.6302V15.6102ZM70.34 8.82018C70.3322 8.51729 70.4144 8.21888 70.5763 7.96279C70.7383 7.7067 70.9726 7.50445 71.2496 7.38169C71.5266 7.25893 71.8339 7.22118 72.1324 7.27324C72.4308 7.32529 72.7072 7.4648 72.9263 7.67408C73.1454 7.88336 73.2974 8.15298 73.3631 8.44877C73.4288 8.74456 73.4052 9.05319 73.2953 9.33555C73.1853 9.6179 72.9941 9.86126 72.7457 10.0348C72.4973 10.2083 72.203 10.3041 71.9 10.3102C71.6992 10.324 71.4977 10.2961 71.3082 10.2283C71.1186 10.1605 70.9452 10.0542 70.7987 9.91619C70.6522 9.77814 70.5358 9.6113 70.4569 9.42613C70.378 9.24096 70.3382 9.04147 70.34 8.84018V8.82018ZM70.34 11.0202H73.34V20.2002H70.34V11.0202ZM84.23 15.6102C84.23 18.6102 82.9 20.3202 80.62 20.3202C80.0354 20.3577 79.4533 20.2148 78.9525 19.9108C78.4518 19.6067 78.0564 19.1562 77.82 18.6202H77.76V23.1402H74.76V11.0002H77.76V12.6402H77.82C78.0454 12.0953 78.4332 11.6331 78.9306 11.3164C79.428 10.9997 80.0109 10.8439 80.6 10.8702C82.9 10.9102 84.27 12.6302 84.27 15.6302L84.23 15.6102ZM81.23 15.6102C81.23 14.1502 80.56 13.2202 79.51 13.2202C78.46 13.2202 77.79 14.1602 77.78 15.6102C77.77 17.0602 78.46 17.9902 79.51 17.9902C80.56 17.9902 81.23 17.0802 81.23 15.6302V15.6102ZM89.38 10.8102C91.87 10.8102 93.38 11.9902 93.45 13.8802H90.72C90.72 13.2302 90.18 12.8202 89.35 12.8202C88.52 12.8202 88.15 13.1402 88.15 13.6102C88.15 14.0802 88.48 14.2302 89.15 14.3702L91.07 14.7602C92.9 15.1502 93.68 15.8902 93.68 17.2802C93.68 19.1802 91.95 20.4002 89.4 20.4002C86.85 20.4002 85.18 19.1802 85.05 17.3102H87.94C88.03 17.9902 88.57 18.3902 89.45 18.3902C90.33 18.3902 90.73 18.1002 90.73 17.6202C90.73 17.1402 90.45 17.0402 89.73 16.8902L88 16.5202C86.21 16.1502 85.27 15.2002 85.27 13.8002C85.29 12.0002 86.9 10.8302 89.38 10.8302V10.8102ZM103.69 20.1802H100.8V18.4702H100.74C100.581 19.0443 100.231 19.5468 99.7468 19.8943C99.263 20.2417 98.6748 20.4132 98.08 20.3802C97.6242 20.4061 97.1682 20.3339 96.7427 20.1684C96.3172 20.0029 95.9322 19.748 95.6137 19.421C95.2952 19.0939 95.0506 18.7023 94.8964 18.2726C94.7422 17.8429 94.6821 17.3851 94.72 16.9302V11.0002H97.72V16.2402C97.72 17.3302 98.28 17.9102 99.21 17.9102C99.4281 17.9106 99.6438 17.8645 99.8425 17.7747C100.041 17.685 100.219 17.5539 100.363 17.39C100.506 17.2262 100.614 17.0335 100.677 16.8249C100.74 16.6162 100.759 16.3964 100.73 16.1802V11.0002H103.73L103.69 20.1802ZM105.14 11.0002H108.04V12.7702H108.1C108.259 12.2037 108.602 11.7059 109.074 11.3549C109.546 11.0038 110.122 10.8193 110.71 10.8302C111.309 10.7823 111.903 10.9614 112.376 11.332C112.848 11.7026 113.164 12.2374 113.26 12.8302H113.32C113.501 12.2311 113.877 11.7095 114.388 11.3474C114.898 10.9853 115.515 10.8033 116.14 10.8302C116.548 10.8165 116.954 10.8888 117.333 11.0423C117.711 11.1959 118.052 11.4273 118.335 11.7216C118.618 12.0158 118.836 12.3663 118.975 12.7503C119.113 13.1342 119.17 13.5431 119.14 13.9502V20.2002H116.14V14.7502C116.14 13.7502 115.69 13.2902 114.85 13.2902C114.663 13.2886 114.477 13.3272 114.306 13.4034C114.135 13.4796 113.982 13.5916 113.858 13.7319C113.734 13.8722 113.641 14.0374 113.586 14.2165C113.532 14.3956 113.516 14.5844 113.54 14.7702V20.2002H110.69V14.7102C110.69 13.7902 110.24 13.2902 109.42 13.2902C109.231 13.2902 109.043 13.3305 108.871 13.4082C108.698 13.4859 108.543 13.5994 108.418 13.7412C108.292 13.8829 108.198 14.0497 108.141 14.2305C108.085 14.4114 108.067 14.6021 108.09 14.7902V20.2002H105.09L105.14 11.0002Z" fill="#6F6F6F"/>
<path d="M26.38 8.61989C25.8711 7.45625 25.1975 6.37182 24.38 5.39989C23.1715 3.92023 21.6633 2.71328 19.9547 1.8585C18.2461 1.00371 16.3758 0.52046 14.467 0.440552C12.5582 0.360644 10.6541 0.685888 8.88002 1.39488C7.10596 2.10388 5.50217 3.18054 4.17419 4.55402C2.84621 5.9275 1.82416 7.56664 1.17531 9.36357C0.526461 11.1605 0.265517 13.0745 0.409658 14.9795C0.5538 16.8846 1.09976 18.7375 2.0116 20.4163C2.92344 22.0952 4.18048 23.5619 5.7 24.7199C6.67501 25.4778 7.75235 26.0939 8.9 26.5499C10.509 27.2093 12.2311 27.5489 13.97 27.5499C17.5594 27.5419 20.9992 26.1112 23.5355 23.5712C26.0717 21.0312 27.4974 17.5893 27.5 13.9999C27.5026 12.1484 27.1213 10.3165 26.38 8.61989ZM13.96 3.18989C15.5216 3.18972 17.0643 3.53103 18.48 4.18989C18.1348 4.33906 17.7718 4.44324 17.4 4.49989C16.1766 4.67698 15.0433 5.24497 14.1692 6.11906C13.2951 6.99315 12.7271 8.12648 12.55 9.34989C12.4723 10.036 12.1602 10.6743 11.6665 11.1571C11.1728 11.6399 10.5277 11.9375 9.84 11.9999C8.6166 12.177 7.48327 12.745 6.60917 13.6191C5.73508 14.4932 5.1671 15.6265 4.99 16.8499C4.93004 17.5023 4.65169 18.1154 4.2 18.5899C3.42066 16.9432 3.07055 15.126 3.18227 13.3076C3.29399 11.4892 3.8639 9.72859 4.83897 8.18964C5.81404 6.65069 7.16257 5.38341 8.75907 4.50574C10.3556 3.62807 12.1482 3.16853 13.97 3.16989L13.96 3.18989ZM5.69 20.9999C5.81 20.8899 5.93 20.7899 6.05 20.6699C6.93966 19.8073 7.51072 18.6687 7.67 17.4399C7.73458 16.7491 8.043 16.1039 8.54 15.6199C9.01825 15.1221 9.66197 14.8162 10.35 14.7599C11.5734 14.5828 12.7067 14.0148 13.5808 13.1407C14.4549 12.2666 15.0229 11.1333 15.2 9.90989C15.2433 9.1874 15.5533 8.50673 16.07 7.99989C16.5601 7.51174 17.2099 7.21699 17.9 7.16989C19.0239 7.01525 20.0721 6.5156 20.9 5.73989C21.8426 6.52196 22.6413 7.46279 23.26 8.51989C23.222 8.57124 23.1784 8.6182 23.13 8.65989C22.6527 9.16208 22.0098 9.47465 21.32 9.53989C20.0953 9.71389 18.9603 10.2809 18.0856 11.1555C17.211 12.0302 16.644 13.1652 16.47 14.3899C16.3995 15.0783 16.0932 15.7212 15.603 16.2096C15.1127 16.6981 14.4687 17.002 13.78 17.0699C12.553 17.2456 11.4155 17.8125 10.5363 18.6862C9.65716 19.56 9.0833 20.694 8.9 21.9199C8.84618 22.4086 8.67834 22.8779 8.41 23.2899C7.384 22.6807 6.46509 21.9071 5.69 20.9999ZM13.96 24.8599C12.9453 24.861 11.9354 24.7196 10.96 24.4399C11.2937 23.8179 11.5106 23.14 11.6 22.4399C11.6701 21.753 11.975 21.1113 12.4632 20.6231C12.9514 20.1348 13.5931 19.83 14.28 19.7599C15.5052 19.5848 16.6408 19.0177 17.5169 18.1434C18.3929 17.2692 18.9624 16.1347 19.14 14.9099C19.2101 14.223 19.515 13.5813 20.0032 13.0931C20.4914 12.6048 21.1331 12.3 21.82 12.2299C22.742 12.11 23.6208 11.7667 24.38 11.2299C24.8016 12.8278 24.8515 14.501 24.526 16.1212C24.2005 17.7414 23.5081 19.2656 22.5021 20.5766C21.4961 21.8877 20.2032 22.951 18.7224 23.6848C17.2417 24.4186 15.6126 24.8035 13.96 24.8099V24.8599Z" fill="#6F6F6F"/>
</svg>
