<svg width="80" height="80" viewBox="0 0 80 80" fill="none" xmlns="http://www.w3.org/2000/svg">
<g id="Frame" clip-path="url(#clip0_76_47)">
<path id="Vector" d="M13.3333 33.3332C13.3333 35.1013 14.0357 36.797 15.286 38.0472C16.5362 39.2975 18.2319 39.9998 20 39.9998C21.7681 39.9998 23.4638 39.2975 24.7141 38.0472C25.9643 36.797 26.6667 35.1013 26.6667 33.3332C26.6667 31.5651 25.9643 29.8694 24.7141 28.6191C23.4638 27.3689 21.7681 26.6665 20 26.6665C18.2319 26.6665 16.5362 27.3689 15.286 28.6191C14.0357 29.8694 13.3333 31.5651 13.3333 33.3332Z" stroke="#02000B" stroke-width="4" stroke-linecap="round" stroke-linejoin="round"/>
<path id="Vector_2" d="M20 13.3335V26.6668" stroke="#02000B" stroke-width="4" stroke-linecap="round" stroke-linejoin="round"/>
<path id="Vector_3" d="M20 40V66.6667" stroke="#02000B" stroke-width="4" stroke-linecap="round" stroke-linejoin="round"/>
<path id="Vector_4" d="M40 13.3335V45.0002" stroke="#02000B" stroke-width="4" stroke-linecap="round" stroke-linejoin="round"/>
<path id="Vector_5" d="M53.3333 23.3332C53.3333 25.1013 54.0357 26.797 55.2859 28.0472C56.5362 29.2975 58.2319 29.9998 60 29.9998C61.7681 29.9998 63.4638 29.2975 64.714 28.0472C65.9643 26.797 66.6666 25.1013 66.6666 23.3332C66.6666 21.5651 65.9643 19.8694 64.714 18.6191C63.4638 17.3689 61.7681 16.6665 60 16.6665C58.2319 16.6665 56.5362 17.3689 55.2859 18.6191C54.0357 19.8694 53.3333 21.5651 53.3333 23.3332Z" stroke="#02000B" stroke-width="4" stroke-linecap="round" stroke-linejoin="round"/>
<path id="Vector_6" d="M60 13.3335V16.6668" stroke="#02000B" stroke-width="4" stroke-linecap="round" stroke-linejoin="round"/>
<path id="Vector_7" d="M59.3333 69.3899L52.0933 73.1832C51.8785 73.2951 51.6368 73.345 51.3952 73.3274C51.1536 73.3098 50.9217 73.2254 50.7253 73.0837C50.5289 72.9419 50.3758 72.7483 50.283 72.5246C50.1903 72.3008 50.1615 72.0557 50.2 71.8166L51.5833 63.7799L45.7267 58.0899C45.5519 57.9209 45.4281 57.7062 45.3695 57.4702C45.3109 57.2342 45.3198 56.9866 45.3952 56.7554C45.4706 56.5243 45.6095 56.319 45.796 56.163C45.9826 56.007 46.2092 55.9066 46.45 55.8732L54.5433 54.6999L58.1633 47.3899C58.2716 47.1722 58.4385 46.989 58.6452 46.8609C58.8519 46.7329 59.0902 46.665 59.3333 46.665C59.5765 46.665 59.8148 46.7329 60.0215 46.8609C60.2282 46.989 60.3951 47.1722 60.5033 47.3899L64.1233 54.6999L72.2167 55.8732C72.4568 55.9078 72.6825 56.0088 72.8682 56.165C73.0539 56.3211 73.1922 56.5261 73.2674 56.7567C73.3427 56.9874 73.3519 57.2345 73.294 57.4701C73.2362 57.7057 73.1135 57.9204 72.94 58.0899L67.0833 63.7799L68.4633 71.8133C68.5047 72.0528 68.4782 72.2992 68.3866 72.5244C68.295 72.7496 68.1421 72.9446 67.9453 73.0873C67.7485 73.23 67.5156 73.3146 67.2731 73.3316C67.0305 73.3485 66.7881 73.2971 66.5733 73.1832L59.3333 69.3899Z" stroke="#02000B" stroke-width="4" stroke-linecap="round" stroke-linejoin="round"/>
<path id="Vector_8" d="M60 30V33.3333" stroke="#02000B" stroke-width="4" stroke-linecap="round" stroke-linejoin="round"/>
</g>
<defs>
<clipPath id="clip0_76_47">
<rect width="80" height="80" fill="white"/>
</clipPath>
</defs>
</svg>
